<?xml version="1.0" encoding="UTF-8"?>
<!DOCTYPE svg PUBLIC "-//W3C//DTD SVG 1.1//EN" "http://www.w3.org/Graphics/SVG/1.1/DTD/svg11.dtd">
<svg xmlns="http://www.w3.org/2000/svg" version="1.1" width="3840px" height="2160px" style="shape-rendering:geometricPrecision; text-rendering:geometricPrecision; image-rendering:optimizeQuality; fill-rule:evenodd; clip-rule:evenodd" xmlns:xlink="http://www.w3.org/1999/xlink">
<g><path style="opacity:0.227" fill="#6f7070" d="M 352.5,820.5 C 352.217,821.289 351.717,821.956 351,822.5C 346.545,821.863 341.712,821.863 336.5,822.5C 336.783,821.711 337.283,821.044 338,820.5C 342.622,820.609 347.455,820.609 352.5,820.5 Z"/></g>
<g><path style="opacity:0.995" fill="#707071" d="M 352.5,820.5 C 353.5,820.5 354.5,820.5 355.5,820.5C 356.263,821.268 357.263,821.768 358.5,822C 361.817,822.498 365.15,822.665 368.5,822.5C 423.797,824.464 474.964,840.464 522,870.5C 522.52,872.289 522.187,873.956 521,875.5C 497.192,917.461 473.692,959.461 450.5,1001.5C 449.833,1001.5 449.167,1001.5 448.5,1001.5C 442.062,996.907 435.728,992.073 429.5,987C 408.424,974.618 385.924,967.785 362,966.5C 355.737,967.026 349.404,967.026 343,966.5C 298.719,969.482 265.052,989.815 242,1027.5C 219.639,1079.15 228.472,1124.65 268.5,1164C 288.455,1180.21 311.288,1189.71 337,1192.5C 384.88,1198.97 425.547,1183.97 459,1147.5C 463.511,1140.47 468.011,1133.47 472.5,1126.5C 473.906,1126.03 474.573,1125.03 474.5,1123.5C 477.167,1118.5 479.833,1113.5 482.5,1108.5C 483.906,1108.03 484.573,1107.03 484.5,1105.5C 507.808,1057.55 531.642,1009.88 556,962.5C 579.667,924.5 609.834,892.666 646.5,867C 692.693,839.383 741.693,824.55 793.5,822.5C 803.837,821.249 814.17,821.249 824.5,822.5C 888.436,824.54 945.436,845.706 995.5,886C 1072.06,955.658 1099.89,1041.49 1079,1143.5C 1064.3,1191.56 1038.13,1232.4 1000.5,1266C 963.558,1298.49 920.892,1319.66 872.5,1329.5C 871.508,1329.33 870.842,1329.66 870.5,1330.5C 854.6,1334.65 838.267,1336.65 821.5,1336.5C 818.455,1336.7 815.621,1336.7 813,1336.5C 812.283,1337.04 811.783,1337.71 811.5,1338.5C 808.167,1338.5 804.833,1338.5 801.5,1338.5C 801.217,1337.71 800.717,1337.04 800,1336.5C 797.712,1336.74 795.212,1336.74 792.5,1336.5C 791.833,1336.5 791.5,1336.83 791.5,1337.5C 791.167,1337.5 790.833,1337.5 790.5,1337.5C 781.192,1336.93 771.692,1335.59 762,1333.5C 761,1333.83 760,1334.17 759,1334.5C 737.208,1330.17 715.708,1323.83 694.5,1315.5C 693.486,1314.33 692.153,1313.66 690.5,1313.5C 656.879,1299.9 627.879,1279.56 603.5,1252.5C 625.652,1211.53 647.819,1170.53 670,1129.5C 670.837,1127.99 672.004,1127.49 673.5,1128C 697.5,1157.03 727.167,1177.7 762.5,1190C 774.943,1193.04 787.276,1194.87 799.5,1195.5C 800.167,1196.83 800.833,1196.83 801.5,1195.5C 843.334,1195.78 878.834,1180.11 908,1148.5C 941.169,1103.96 941.836,1058.96 910,1013.5C 886.215,986.529 856.715,971.195 821.5,967.5C 818.038,966.518 814.371,966.185 810.5,966.5C 759.591,966.886 719.758,988.552 691,1031.5C 663.631,1080.91 636.631,1130.58 610,1180.5C 600.08,1197.34 590.414,1214.34 581,1231.5C 540.49,1284.9 487.49,1317.9 422,1330.5C 405.916,1334.86 389.416,1336.86 372.5,1336.5C 367.182,1336.8 362.349,1336.8 358,1336.5C 357.283,1337.04 356.783,1337.71 356.5,1338.5C 355.5,1338.5 354.5,1338.5 353.5,1338.5C 353.217,1337.71 352.717,1337.04 352,1336.5C 348.712,1336.66 345.212,1336.66 341.5,1336.5C 341.167,1336.5 340.833,1336.5 340.5,1336.5C 339.833,1336.5 339.167,1336.5 338.5,1336.5C 245.636,1333.62 171.47,1293.62 116,1216.5C 94.4791,1184.1 81.9791,1148.43 78.5,1109.5C 78.8799,1107.3 78.2132,1105.64 76.5,1104.5C 76.5,1089.83 76.5,1075.17 76.5,1060.5C 78.1765,1059.82 78.8432,1058.48 78.5,1056.5C 85.7061,989.926 114.373,934.093 164.5,889C 214.688,846.906 272.021,824.739 336.5,822.5C 341.712,821.863 346.545,821.863 351,822.5C 351.717,821.956 352.217,821.289 352.5,820.5 Z"/></g>
<g><path style="opacity:0.227" fill="#6f7070" d="M 355.5,820.5 C 360.294,819.903 364.627,820.57 368.5,822.5C 365.15,822.665 361.817,822.498 358.5,822C 357.263,821.768 356.263,821.268 355.5,820.5 Z"/></g>
<g><path style="opacity:0.227" fill="#6f7070" d="M 824.5,822.5 C 814.17,821.249 803.837,821.249 793.5,822.5C 793.611,821.883 793.944,821.383 794.5,821C 804.167,820.333 813.833,820.333 823.5,821C 824.056,821.383 824.389,821.883 824.5,822.5 Z"/></g>
<g><path style="opacity:0.994" fill="#707071" d="M 2322.5,862.5 C 2322.83,863.5 2323.5,864.167 2324.5,864.5C 2306.36,899.452 2287.69,934.118 2268.5,968.5C 2256.92,962.706 2244.92,958.039 2232.5,954.5C 2231.07,953.463 2229.4,952.796 2227.5,952.5C 2218.18,950.645 2208.84,948.978 2199.5,947.5C 2198.08,946.549 2196.41,946.216 2194.5,946.5C 2191.64,947.105 2188.31,947.105 2184.5,946.5C 2180.5,945.167 2176.5,945.167 2172.5,946.5C 2163.08,947.251 2153.75,949.418 2144.5,953C 2136.97,956.525 2131.47,962.025 2128,969.5C 2126.23,977.936 2127.73,985.603 2132.5,992.5C 2138.7,998.769 2146.03,1003.27 2154.5,1006C 2177.7,1011.39 2200.7,1016.39 2223.5,1021C 2316.84,1044.81 2353.34,1103.97 2333,1198.5C 2322.1,1233.48 2301.6,1261.32 2271.5,1282C 2239.45,1302.4 2204.78,1314.9 2167.5,1319.5C 2166.21,1319.26 2165.21,1319.6 2164.5,1320.5C 2141.18,1323.92 2119.18,1324.92 2098.5,1323.5C 2095.71,1322.52 2092.71,1322.19 2089.5,1322.5C 2084.74,1322.77 2080.07,1322.44 2075.5,1321.5C 2074.43,1320.57 2073.1,1320.23 2071.5,1320.5C 2044.21,1317.77 2017.21,1311.6 1990.5,1302C 1982.52,1299.33 1974.85,1296.17 1967.5,1292.5C 1966.71,1291.6 1965.71,1290.93 1964.5,1290.5C 1951.25,1285.71 1938.59,1279.54 1926.5,1272C 1925.98,1271.44 1925.64,1270.77 1925.5,1270C 1945.42,1231.99 1965.76,1194.16 1986.5,1156.5C 2023.43,1180.86 2063.6,1196.19 2107,1202.5C 2113.46,1202.26 2120.12,1202.26 2127,1202.5C 2142.48,1201.12 2155.48,1194.79 2166,1183.5C 2173.13,1169.8 2170.97,1157.3 2159.5,1146C 2154.05,1142.62 2148.38,1139.62 2142.5,1137C 2130.66,1133.2 2118.99,1130.03 2107.5,1127.5C 2107.16,1126.66 2106.49,1126.33 2105.5,1126.5C 2095.43,1124.93 2085.43,1122.93 2075.5,1120.5C 2075.16,1119.66 2074.49,1119.33 2073.5,1119.5C 2041.15,1114.57 2012.98,1101.24 1989,1079.5C 1976.71,1066.46 1968.87,1051.13 1965.5,1033.5C 1965.28,1030.93 1964.61,1028.6 1963.5,1026.5C 1953.09,944.836 1985.76,887.336 2061.5,854C 2091.47,842.292 2122.31,835.459 2154,833.5C 2166.1,833.81 2177.43,833.81 2188,833.5C 2191.33,834.167 2194.67,834.833 2198,835.5C 2240.59,836.463 2282.09,845.463 2322.5,862.5 Z"/></g>
<g><path style="opacity:0.994" fill="#707071" d="M 2684.5,1319.5 C 2683.21,1319.26 2682.21,1319.6 2681.5,1320.5C 2674.52,1321.94 2666.85,1322.61 2658.5,1322.5C 2655.61,1322.19 2652.95,1322.53 2650.5,1323.5C 2639.96,1324.42 2628.96,1324.42 2617.5,1323.5C 2614.71,1322.52 2611.71,1322.19 2608.5,1322.5C 2583.11,1321.71 2558.44,1317.71 2534.5,1310.5C 2534.16,1309.66 2533.49,1309.33 2532.5,1309.5C 2446.95,1285.78 2391.95,1230.95 2367.5,1145C 2367.83,1144.67 2368.17,1144.33 2368.5,1144C 2366.38,1139.1 2365.38,1133.93 2365.5,1128.5C 2365.67,1127.51 2365.34,1126.84 2364.5,1126.5C 2356.13,1075.42 2361.3,1025.09 2380,975.5C 2407.49,914.966 2452.66,873.466 2515.5,851C 2582.03,829.385 2649.36,828.052 2717.5,847C 2797.18,872.347 2848.35,925.18 2871,1005.5C 2878.72,1038.7 2882.22,1072.36 2881.5,1106.5C 2763.83,1106.5 2646.17,1106.5 2528.5,1106.5C 2528.65,1130.79 2535.15,1153.12 2548,1173.5C 2565.29,1193.06 2586.79,1203.9 2612.5,1206C 2632.96,1208.66 2653.63,1206.66 2674.5,1200C 2691.17,1192.33 2704,1180.5 2713,1164.5C 2766.67,1164.83 2820.33,1165.17 2874,1165.5C 2863.71,1208.46 2841.21,1243.63 2806.5,1271C 2769.3,1298.08 2728.63,1314.24 2684.5,1319.5 Z M 2652.5,942.5 C 2653.99,944.28 2655.99,944.946 2658.5,944.5C 2671.45,948.387 2683.45,954.387 2694.5,962.5C 2694.5,963.833 2695.17,964.5 2696.5,964.5C 2710.13,976.759 2719.13,991.759 2723.5,1009.5C 2692.01,1010.83 2660.17,1011.5 2628,1011.5C 2595.83,1011.5 2563.99,1010.83 2532.5,1009.5C 2542.92,973.418 2566.59,951.418 2603.5,943.5C 2604.33,944.439 2604.99,944.105 2605.5,942.5C 2621.17,941.167 2636.83,941.167 2652.5,942.5 Z"/></g>
<g><path style="opacity:0.996" fill="#707071" d="M 3490.5,1319.5 C 3489.21,1319.26 3488.21,1319.6 3487.5,1320.5C 3416.07,1331.46 3352.07,1313.63 3295.5,1267C 3239.89,1215.5 3211.89,1152.5 3211.5,1078C 3212.37,1003.94 3240.04,941.274 3294.5,890C 3361.81,836.314 3435.81,820.98 3516.5,844C 3546.11,853.205 3571.61,869.038 3593,891.5C 3593.37,890.584 3593.87,889.75 3594.5,889C 3593.36,876.237 3593.36,863.403 3594.5,850.5C 3650.5,849.5 3706.5,849.167 3762.5,849.5C 3762.5,1002.5 3762.5,1155.5 3762.5,1308.5C 3706.59,1308.33 3650.76,1308.66 3595,1309.5C 3594.69,1308.23 3594.19,1307.07 3593.5,1306C 3593.7,1289.9 3593.7,1273.73 3593.5,1257.5C 3572.82,1286.12 3545.82,1305.29 3512.5,1315C 3505.26,1317.03 3497.92,1318.53 3490.5,1319.5 Z M 3482.5,976.5 C 3488.06,976.684 3493.89,976.684 3500,976.5C 3533.95,978.308 3560.95,992.308 3581,1018.5C 3597.62,1044.54 3602.95,1072.87 3597,1103.5C 3586.17,1146.35 3559.17,1171.35 3516,1178.5C 3487.53,1184.59 3459.36,1180.43 3431.5,1166C 3401.39,1145.3 3386.06,1116.47 3385.5,1079.5C 3389.73,1017.96 3422.06,983.623 3482.5,976.5 Z"/></g>
<g><path style="opacity:0.994" fill="#707071" d="M 1928.5,842.5 C 1942.07,842.649 1956.41,842.649 1971.5,842.5C 1971.67,855.504 1971.5,868.504 1971,881.5C 1945.71,911.839 1931.88,946.839 1929.5,986.5C 1928.67,986.833 1927.83,987.167 1927,987.5C 1836.21,975.083 1789.21,1014.75 1786,1106.5C 1785.99,1174.25 1785.33,1241.92 1784,1309.5C 1729.71,1308.36 1675.37,1308.36 1621,1309.5C 1619.67,1308.83 1618.33,1308.17 1617,1307.5C 1616.5,1154.83 1616.33,1002.17 1616.5,849.5C 1672.5,849.333 1728.5,849.5 1784.5,850C 1785.33,874.761 1785.83,899.594 1786,924.5C 1815.2,876.237 1857.86,849.571 1914,844.5C 1918.93,843.856 1923.77,843.19 1928.5,842.5 Z"/></g>
<g><path style="opacity:0.994" fill="#707071" d="M 3153.5,988.5 C 3152.51,988.328 3151.84,988.662 3151.5,989.5C 3115.18,998.651 3092.01,1021.65 3082,1058.5C 3078.19,1074.96 3075.86,1091.63 3075,1108.5C 3074.5,1175.17 3074.33,1241.83 3074.5,1308.5C 3018.48,1308.71 2962.48,1308.71 2906.5,1308.5C 2906.5,1155.5 2906.5,1002.5 2906.5,849.5C 2962.5,849.5 3018.5,849.5 3074.5,849.5C 3074.33,874.502 3074.5,899.502 3075,924.5C 3097.29,886.881 3129.45,862.047 3171.5,850C 3181.64,847.452 3191.8,845.285 3202,843.5C 3220.69,842.568 3240.36,842.568 3261,843.5C 3261.67,855.5 3261.67,867.5 3261,879.5C 3231.58,909.654 3209.75,944.654 3195.5,984.5C 3181.11,985.051 3167.11,986.385 3153.5,988.5 Z"/></g>
<g><path style="opacity:0.994" fill="#707071" d="M 1395.5,1320.5 C 1393.9,1320.23 1392.57,1320.57 1391.5,1321.5C 1381.64,1322.57 1371.81,1323.57 1362,1324.5C 1350.54,1323.41 1339.21,1323.41 1328,1324.5C 1309.94,1323.41 1292.28,1321.07 1275,1317.5C 1186.59,1301.77 1133.43,1249.27 1115.5,1160C 1115.83,1159.67 1116.17,1159.33 1116.5,1159C 1114.04,1146.44 1112.54,1133.94 1112,1121.5C 1111.17,1030.83 1111.33,940.165 1112.5,849.5C 1113.09,849.291 1113.59,848.957 1114,848.5C 1167.1,848.64 1220.26,848.973 1273.5,849.5C 1274.33,935.498 1274.83,1021.5 1275,1107.5C 1274.55,1156.38 1298.55,1182.38 1347,1185.5C 1360.22,1185.55 1373.05,1182.71 1385.5,1177C 1404.56,1166.92 1415.4,1151.08 1418,1129.5C 1419.14,1036.18 1419.97,942.849 1420.5,849.5C 1473.74,848.973 1526.9,848.64 1580,848.5C 1580.67,849.167 1581.33,849.833 1582,850.5C 1582.93,944.842 1582.6,1039.18 1581,1133.5C 1572.34,1236.45 1517.84,1297.95 1417.5,1318C 1411.2,1318.72 1405.04,1319.89 1399,1321.5C 1397.86,1321.38 1396.69,1321.05 1395.5,1320.5 Z"/></g>
<g><path style="opacity:0.227" fill="#6f7070" d="M 2322.5,862.5 C 2323.83,862.5 2324.5,863.167 2324.5,864.5C 2323.5,864.167 2322.83,863.5 2322.5,862.5 Z"/></g>
<g><path style="opacity:0.227" fill="#6f7070" d="M 2605.5,942.5 C 2604.99,944.105 2604.33,944.439 2603.5,943.5C 2603.84,942.662 2604.51,942.328 2605.5,942.5 Z"/></g>
<g><path style="opacity:0.227" fill="#6f7070" d="M 2652.5,942.5 C 2654.7,942.875 2656.7,943.542 2658.5,944.5C 2655.99,944.946 2653.99,944.28 2652.5,942.5 Z"/></g>
<g><path style="opacity:0.227" fill="#6f7070" d="M 2172.5,946.5 C 2176.5,945.167 2180.5,945.167 2184.5,946.5C 2180.29,946.676 2176.29,946.676 2172.5,946.5 Z"/></g>
<g><path style="opacity:0.227" fill="#6f7070" d="M 2194.5,946.5 C 2196.41,946.216 2198.08,946.549 2199.5,947.5C 2199.57,947.938 2199.4,948.272 2199,948.5C 2197.38,947.901 2195.88,947.234 2194.5,946.5 Z"/></g>
<g><path style="opacity:0.227" fill="#6f7070" d="M 2227.5,952.5 C 2229.4,952.796 2231.07,953.463 2232.5,954.5C 2230.3,954.88 2228.64,954.213 2227.5,952.5 Z"/></g>
<g><path style="opacity:0.227" fill="#6f7070" d="M 2694.5,962.5 C 2695.5,962.833 2696.17,963.5 2696.5,964.5C 2695.17,964.5 2694.5,963.833 2694.5,962.5 Z"/></g>
<g><path style="opacity:0.227" fill="#6f7070" d="M 810.5,966.5 C 814.371,966.185 818.038,966.518 821.5,967.5C 821.565,967.938 821.399,968.272 821,968.5C 817.397,967.865 813.897,967.198 810.5,966.5 Z"/></g>
<g><path style="opacity:0.227" fill="#6f7070" d="M 3153.5,988.5 C 3152.99,990.105 3152.33,990.439 3151.5,989.5C 3151.84,988.662 3152.51,988.328 3153.5,988.5 Z"/></g>
<g><path style="opacity:0.227" fill="#6f7070" d="M 448.5,1001.5 C 449.167,1001.5 449.833,1001.5 450.5,1001.5C 449.452,1003.93 448.786,1003.93 448.5,1001.5 Z"/></g>
<g><path style="opacity:0.227" fill="#6f7070" d="M 2532.5,1009.5 C 2563.99,1010.83 2595.83,1011.5 2628,1011.5C 2660.17,1011.5 2692.01,1010.83 2723.5,1009.5C 2724.4,1010.21 2724.74,1011.21 2724.5,1012.5C 2660.17,1012.5 2595.83,1012.5 2531.5,1012.5C 2531.26,1011.21 2531.6,1010.21 2532.5,1009.5 Z"/></g>
<g><path style="opacity:0.227" fill="#6f7070" d="M 1963.5,1026.5 C 1964.61,1028.6 1965.28,1030.93 1965.5,1033.5C 1963.84,1031.56 1963.17,1029.23 1963.5,1026.5 Z"/></g>
<g><path style="opacity:0.227" fill="#6f7070" d="M 78.5,1056.5 C 78.8432,1058.48 78.1765,1059.82 76.5,1060.5C 76.2291,1058.62 76.8958,1057.29 78.5,1056.5 Z"/></g>
<g><path style="opacity:0.227" fill="#6f7070" d="M 76.5,1104.5 C 78.2132,1105.64 78.8799,1107.3 78.5,1109.5C 76.7868,1108.36 76.1201,1106.7 76.5,1104.5 Z"/></g>
<g><path style="opacity:0.227" fill="#6f7070" d="M 484.5,1105.5 C 484.573,1107.03 483.906,1108.03 482.5,1108.5C 482.427,1106.97 483.094,1105.97 484.5,1105.5 Z"/></g>
<g><path style="opacity:0.227" fill="#6f7070" d="M 2073.5,1119.5 C 2074.49,1119.33 2075.16,1119.66 2075.5,1120.5C 2074.67,1121.44 2074.01,1121.11 2073.5,1119.5 Z"/></g>
<g><path style="opacity:0.227" fill="#6f7070" d="M 474.5,1123.5 C 474.573,1125.03 473.906,1126.03 472.5,1126.5C 472.427,1124.97 473.094,1123.97 474.5,1123.5 Z"/></g>
<g><path style="opacity:0.227" fill="#6f7070" d="M 2105.5,1126.5 C 2106.49,1126.33 2107.16,1126.66 2107.5,1127.5C 2106.67,1128.44 2106.01,1128.11 2105.5,1126.5 Z"/></g>
<g><path style="opacity:0.227" fill="#6f7070" d="M 2364.5,1126.5 C 2365.34,1126.84 2365.67,1127.51 2365.5,1128.5C 2363.89,1127.99 2363.56,1127.33 2364.5,1126.5 Z"/></g>
<g><path style="opacity:0.227" fill="#6f7070" d="M 801.5,1195.5 C 800.833,1196.83 800.167,1196.83 799.5,1195.5C 799.938,1194.49 800.604,1194.49 801.5,1195.5 Z"/></g>
<g><path style="opacity:0.227" fill="#6f7070" d="M 1964.5,1290.5 C 1965.71,1290.93 1966.71,1291.6 1967.5,1292.5C 1965.82,1292.71 1964.82,1292.05 1964.5,1290.5 Z"/></g>
<g><path style="opacity:0.227" fill="#6f7070" d="M 2532.5,1309.5 C 2533.49,1309.33 2534.16,1309.66 2534.5,1310.5C 2533.67,1311.44 2533.01,1311.11 2532.5,1309.5 Z"/></g>
<g><path style="opacity:0.227" fill="#6f7070" d="M 690.5,1313.5 C 692.153,1313.66 693.486,1314.33 694.5,1315.5C 692.62,1315.77 691.287,1315.1 690.5,1313.5 Z"/></g>
<g><path style="opacity:0.227" fill="#6f7070" d="M 2167.5,1319.5 C 2166.83,1320.27 2165.99,1320.93 2165,1321.5C 2164.6,1321.27 2164.43,1320.94 2164.5,1320.5C 2165.21,1319.6 2166.21,1319.26 2167.5,1319.5 Z"/></g>
<g><path style="opacity:0.227" fill="#6f7070" d="M 2684.5,1319.5 C 2683.83,1320.27 2682.99,1320.93 2682,1321.5C 2681.6,1321.27 2681.43,1320.94 2681.5,1320.5C 2682.21,1319.6 2683.21,1319.26 2684.5,1319.5 Z"/></g>
<g><path style="opacity:0.227" fill="#6f7070" d="M 3490.5,1319.5 C 3489.83,1320.27 3488.99,1320.93 3488,1321.5C 3487.6,1321.27 3487.43,1320.94 3487.5,1320.5C 3488.21,1319.6 3489.21,1319.26 3490.5,1319.5 Z"/></g>
<g><path style="opacity:0.227" fill="#6f7070" d="M 1395.5,1320.5 C 1394.47,1321.25 1393.3,1321.92 1392,1322.5C 1391.6,1322.27 1391.43,1321.94 1391.5,1321.5C 1392.57,1320.57 1393.9,1320.23 1395.5,1320.5 Z"/></g>
<g><path style="opacity:0.227" fill="#6f7070" d="M 2071.5,1320.5 C 2073.1,1320.23 2074.43,1320.57 2075.5,1321.5C 2075.57,1321.94 2075.4,1322.27 2075,1322.5C 2073.7,1321.92 2072.53,1321.25 2071.5,1320.5 Z"/></g>
<g><path style="opacity:0.227" fill="#6f7070" d="M 2089.5,1322.5 C 2092.71,1322.19 2095.71,1322.52 2098.5,1323.5C 2097.88,1323.61 2097.38,1323.94 2097,1324.5C 2094.39,1323.88 2091.89,1323.21 2089.5,1322.5 Z"/></g>
<g><path style="opacity:0.227" fill="#6f7070" d="M 2608.5,1322.5 C 2611.71,1322.19 2614.71,1322.52 2617.5,1323.5C 2616.88,1323.61 2616.38,1323.94 2616,1324.5C 2613.39,1323.88 2610.89,1323.21 2608.5,1322.5 Z"/></g>
<g><path style="opacity:0.227" fill="#6f7070" d="M 2650.5,1323.5 C 2652.95,1322.53 2655.61,1322.19 2658.5,1322.5C 2656.44,1323.22 2654.28,1323.88 2652,1324.5C 2651.62,1323.94 2651.12,1323.61 2650.5,1323.5 Z"/></g>
<g><path style="opacity:0.227" fill="#6f7070" d="M 872.5,1329.5 C 871.994,1331.11 871.327,1331.44 870.5,1330.5C 870.842,1329.66 871.508,1329.33 872.5,1329.5 Z"/></g>
<g><path style="opacity:0.227" fill="#6f7070" d="M 338.5,1336.5 C 339.167,1336.5 339.833,1336.5 340.5,1336.5C 340.833,1337.83 341.167,1337.83 341.5,1336.5C 345.212,1336.66 348.712,1336.66 352,1336.5C 352.717,1337.04 353.217,1337.71 353.5,1338.5C 348.821,1338.67 344.155,1338.5 339.5,1338C 338.944,1337.62 338.611,1337.12 338.5,1336.5 Z"/></g>
<g><path style="opacity:0.227" fill="#6f7070" d="M 372.5,1336.5 C 372.631,1337.24 372.464,1337.91 372,1338.5C 367.318,1338.22 362.151,1338.22 356.5,1338.5C 356.783,1337.71 357.283,1337.04 358,1336.5C 362.349,1336.8 367.182,1336.8 372.5,1336.5 Z"/></g>
<g><path style="opacity:0.227" fill="#6f7070" d="M 792.5,1336.5 C 795.212,1336.74 797.712,1336.74 800,1336.5C 800.717,1337.04 801.217,1337.71 801.5,1338.5C 797.958,1338.81 794.625,1338.48 791.5,1337.5C 792.167,1337.5 792.5,1337.17 792.5,1336.5 Z"/></g>
<g><path style="opacity:0.227" fill="#6f7070" d="M 821.5,1336.5 C 821.217,1337.29 820.717,1337.96 820,1338.5C 817.379,1338.3 814.545,1338.3 811.5,1338.5C 811.783,1337.71 812.283,1337.04 813,1336.5C 815.621,1336.7 818.455,1336.7 821.5,1336.5 Z"/></g>
<g><path style="opacity:0.227" fill="#6f7070" d="M 790.5,1337.5 C 789.833,1338.17 789.833,1338.17 790.5,1337.5 Z"/></g>
</svg>
