<?xml version="1.0" encoding="UTF-8"?>
<!DOCTYPE svg PUBLIC "-//W3C//DTD SVG 1.1//EN" "http://www.w3.org/Graphics/SVG/1.1/DTD/svg11.dtd">
<svg xmlns="http://www.w3.org/2000/svg" version="1.1" width="550px" height="310px" style="shape-rendering:geometricPrecision; text-rendering:geometricPrecision; image-rendering:optimizeQuality; fill-rule:evenodd; clip-rule:evenodd" xmlns:xlink="http://www.w3.org/1999/xlink">
<g><path style="opacity:0.075" fill="#f3ad7d" d="M 147.5,94.5 C 149.95,94.298 152.283,94.6314 154.5,95.5C 152.393,96.4682 150.059,96.8016 147.5,96.5C 147.5,95.8333 147.5,95.1667 147.5,94.5 Z"/></g>
<g><path style="opacity:0.075" fill="#f3ab7b" d="M 194.5,94.5 C 193.121,96.5969 191.455,96.9302 189.5,95.5C 190.919,94.5489 192.585,94.2155 194.5,94.5 Z"/></g>
<g><path style="opacity:0.165" fill="#f3b184" d="M 198.5,94.5 C 199.167,104.167 199.833,113.833 200.5,123.5C 200.672,124.492 200.338,125.158 199.5,125.5C 198.525,115.249 198.192,104.915 198.5,94.5 Z"/></g>
<g><path style="opacity:0.42" fill="#f19c60" d="M 147.5,94.5 C 147.5,95.1667 147.5,95.8333 147.5,96.5C 143.818,96.5806 140.151,96.2473 136.5,95.5C 139.962,94.5184 143.629,94.185 147.5,94.5 Z"/></g>
<g><path style="opacity:0.588" fill="#ef893e" d="M 197.5,94.5 C 197.833,94.5 198.167,94.5 198.5,94.5C 198.192,104.915 198.525,115.249 199.5,125.5C 197.525,115.554 196.858,105.221 197.5,94.5 Z"/></g>
<g><path style="opacity:0.075" fill="#f3ab7b" d="M 184.5,95.5 C 183.449,96.2223 182.782,97.2223 182.5,98.5C 181.036,99.4054 179.702,99.4054 178.5,98.5C 180.03,96.6535 182.03,95.6535 184.5,95.5 Z"/></g>
<g><path style="opacity:0.588" fill="#f2a066" d="M 132.5,95.5 C 132.5,96.5 132.5,97.5 132.5,98.5C 130.585,98.7845 128.919,98.4511 127.5,97.5C 129.322,97.1692 130.989,96.5025 132.5,95.5 Z"/></g>
<g><path style="opacity:0.278" fill="#f2a46e" d="M 157.5,95.5 C 158.778,95.7822 159.778,96.4489 160.5,97.5C 158.975,98.3888 157.975,97.7221 157.5,95.5 Z"/></g>
<g><path style="opacity:0.035" fill="#f2a571" d="M 161.5,97.5 C 164.71,97.8697 167.377,99.203 169.5,101.5C 168.883,101.611 168.383,101.944 168,102.5C 165.819,100.737 163.653,99.0701 161.5,97.5 Z"/></g>
<g><path style="opacity:0.239" fill="#ed7e2a" d="M 178.5,98.5 C 179.702,99.4054 181.036,99.4054 182.5,98.5C 181.833,127.47 181.167,156.47 180.5,185.5C 185.651,186.167 190.651,186.834 195.5,187.5C 189.833,187.5 184.167,187.5 178.5,187.5C 178.5,157.833 178.5,128.167 178.5,98.5 Z"/></g>
<g><path style="opacity:1" fill="#eb7006" d="M 132.5,95.5 C 133.833,95.5 135.167,95.5 136.5,95.5C 140.151,96.2473 143.818,96.5806 147.5,96.5C 150.059,96.8016 152.393,96.4682 154.5,95.5C 155.5,95.5 156.5,95.5 157.5,95.5C 157.975,97.7221 158.975,98.3888 160.5,97.5C 160.833,97.5 161.167,97.5 161.5,97.5C 163.653,99.0701 165.819,100.737 168,102.5C 168.383,101.944 168.883,101.611 169.5,101.5C 170.71,101.932 171.71,102.599 172.5,103.5C 173.038,105.117 173.371,106.784 173.5,108.5C 171.436,108.762 170.103,109.929 169.5,112C 169.728,112.399 170.062,112.565 170.5,112.5C 170.443,113.609 170.11,114.609 169.5,115.5C 168.325,115.281 167.325,115.614 166.5,116.5C 166.624,117.107 166.957,117.44 167.5,117.5C 167.715,119.179 167.048,120.179 165.5,120.5C 165.013,119.527 164.513,118.527 164,117.5C 163.601,117.728 163.435,118.062 163.5,118.5C 162.833,118.5 162.167,118.5 161.5,118.5C 161.586,117.504 161.252,116.671 160.5,116C 157.92,115.462 155.753,114.296 154,112.5C 147.777,112.767 141.943,113.767 136.5,115.5C 133.68,115.087 131.68,116.087 130.5,118.5C 130.167,118.5 129.833,118.5 129.5,118.5C 129.44,117.957 129.107,117.624 128.5,117.5C 125.644,119.522 123.311,122.022 121.5,125C 121.728,125.399 122.062,125.565 122.5,125.5C 122.5,126.167 122.5,126.833 122.5,127.5C 121.167,127.5 119.833,127.5 118.5,127.5C 118.634,129.292 118.301,130.958 117.5,132.5C 116.567,135.642 115.901,138.976 115.5,142.5C 115.52,143.726 115.853,144.726 116.5,145.5C 117.167,145.5 117.833,145.5 118.5,145.5C 118.5,146.833 118.5,148.167 118.5,149.5C 117.115,150.947 117.448,151.947 119.5,152.5C 119.5,154.167 119.5,155.833 119.5,157.5C 120.5,157.5 121.5,157.5 122.5,157.5C 122.5,157.833 122.5,158.167 122.5,158.5C 121.957,158.56 121.624,158.893 121.5,159.5C 122.954,161.437 124.621,163.103 126.5,164.5C 126.973,165.906 127.973,166.573 129.5,166.5C 130.396,165.494 131.062,165.494 131.5,166.5C 131.281,167.675 131.614,168.675 132.5,169.5C 133.107,169.376 133.44,169.043 133.5,168.5C 134.167,168.5 134.833,168.5 135.5,168.5C 135.285,170.179 135.952,171.179 137.5,171.5C 140.53,171.908 143.53,172.574 146.5,173.5C 150.317,172.551 153.984,171.551 157.5,170.5C 157.5,169.833 157.5,169.167 157.5,168.5C 158.609,168.443 159.609,168.11 160.5,167.5C 162.262,167.643 163.929,167.309 165.5,166.5C 166.283,168.288 167.616,169.288 169.5,169.5C 168.185,170.895 168.519,171.895 170.5,172.5C 172.048,172.821 172.715,173.821 172.5,175.5C 172.5,177.5 172.5,179.5 172.5,181.5C 171.167,181.5 169.833,181.5 168.5,181.5C 168.5,182.5 168.5,183.5 168.5,184.5C 167.833,184.5 167.167,184.5 166.5,184.5C 166.565,184.062 166.399,183.728 166,183.5C 164.961,184.244 164.461,185.244 164.5,186.5C 163.833,186.5 163.167,186.5 162.5,186.5C 160.975,185.611 159.975,186.278 159.5,188.5C 158.5,188.5 157.5,188.5 156.5,188.5C 154.393,187.532 152.059,187.198 149.5,187.5C 149.5,188.5 149.5,189.5 149.5,190.5C 146.5,190.5 143.5,190.5 140.5,190.5C 139.113,187.674 137.113,187.007 134.5,188.5C 133.167,188.5 131.833,188.5 130.5,188.5C 130.025,186.278 129.025,185.611 127.5,186.5C 126.833,186.5 126.167,186.5 125.5,186.5C 125.5,185.5 125.5,184.5 125.5,183.5C 122.31,183.147 119.644,181.814 117.5,179.5C 114.203,176.704 111.036,173.704 108,170.5C 107.601,170.728 107.435,171.062 107.5,171.5C 106.599,170.71 105.932,169.71 105.5,168.5C 105.938,168.565 106.272,168.399 106.5,168C 104.438,165.932 103.272,163.432 103,160.5C 102.04,157.935 100.54,155.769 98.5,154C 98.5646,146.377 98.5646,138.543 98.5,130.5C 101.261,125.827 103.594,120.827 105.5,115.5C 106.522,113.145 108.188,111.478 110.5,110.5C 111.5,110.167 112.167,109.5 112.5,108.5C 113.5,108.167 114.167,107.5 114.5,106.5C 114.5,105.167 115.167,104.5 116.5,104.5C 118.38,104.771 119.713,104.104 120.5,102.5C 122.084,101.618 123.751,100.785 125.5,100C 126.252,99.3292 126.586,98.4959 126.5,97.5C 126.833,97.5 127.167,97.5 127.5,97.5C 128.919,98.4511 130.585,98.7845 132.5,98.5C 132.5,97.5 132.5,96.5 132.5,95.5 Z"/></g>
<g><path style="opacity:1" fill="#eb7005" d="M 194.5,94.5 C 195.5,94.5 196.5,94.5 197.5,94.5C 196.858,105.221 197.525,115.554 199.5,125.5C 200.338,125.158 200.672,124.492 200.5,123.5C 202.199,123.66 203.866,123.494 205.5,123C 204.748,122.329 204.414,121.496 204.5,120.5C 211.167,120.5 217.833,120.5 224.5,120.5C 224.281,121.675 224.614,122.675 225.5,123.5C 226.107,123.376 226.44,123.043 226.5,122.5C 227.167,122.5 227.833,122.5 228.5,122.5C 228.5,123.833 228.5,125.167 228.5,126.5C 230.5,126.833 232.5,127.167 234.5,127.5C 234.5,127.833 234.5,128.167 234.5,128.5C 233.984,129.758 234.65,130.758 236.5,131.5C 238.048,131.821 238.715,132.821 238.5,134.5C 238.062,134.435 237.728,134.601 237.5,135C 239.229,136.789 239.896,138.956 239.5,141.5C 241.4,156.699 242.067,172.032 241.5,187.5C 234.745,188.123 228.412,187.456 222.5,185.5C 223.826,171.661 223.826,157.661 222.5,143.5C 221.305,141.703 219.638,140.703 217.5,140.5C 217.5,139.5 217.5,138.5 217.5,137.5C 214.167,137.5 210.833,137.5 207.5,137.5C 204.638,138.247 202.638,139.914 201.5,142.5C 199.481,143.538 199.147,144.872 200.5,146.5C 200.5,146.833 200.5,147.167 200.5,147.5C 198.519,160.458 197.852,173.791 198.5,187.5C 197.5,187.5 196.5,187.5 195.5,187.5C 190.651,186.834 185.651,186.167 180.5,185.5C 181.167,156.47 181.833,127.47 182.5,98.5C 182.782,97.2223 183.449,96.2223 184.5,95.5C 186.167,95.5 187.833,95.5 189.5,95.5C 191.455,96.9302 193.121,96.5969 194.5,94.5 Z"/></g>
<g><path style="opacity:0.675" fill="#f19758" d="M 126.5,97.5 C 126.586,98.4959 126.252,99.3292 125.5,100C 123.751,100.785 122.084,101.618 120.5,102.5C 120.414,101.504 120.748,100.671 121.5,100C 123.249,99.2152 124.916,98.3818 126.5,97.5 Z"/></g>
<g><path style="opacity:0.204" fill="#f0904b" d="M 120.5,102.5 C 119.713,104.104 118.38,104.771 116.5,104.5C 117.195,102.15 118.528,101.483 120.5,102.5 Z"/></g>
<g><path style="opacity:0.075" fill="#f3ab7b" d="M 172.5,103.5 C 174.597,104.879 174.93,106.545 173.5,108.5C 173.371,106.784 173.038,105.117 172.5,103.5 Z"/></g>
<g><path style="opacity:0.278" fill="#f3a874" d="M 114.5,106.5 C 114.167,107.5 113.5,108.167 112.5,108.5C 112.5,107.167 113.167,106.5 114.5,106.5 Z"/></g>
<g><path style="opacity:0.278" fill="#f3a874" d="M 112.5,108.5 C 112.167,109.5 111.5,110.167 110.5,110.5C 110.5,109.167 111.167,108.5 112.5,108.5 Z"/></g>
<g><path style="opacity:0.075" fill="#f2a976" d="M 173.5,108.5 C 172.974,110.23 171.974,111.564 170.5,112.5C 170.062,112.565 169.728,112.399 169.5,112C 170.103,109.929 171.436,108.762 173.5,108.5 Z"/></g>
<g><path style="opacity:0.035" fill="#f2a978" d="M 161.5,118.5 C 153.583,114.583 145.25,113.583 136.5,115.5C 141.943,113.767 147.777,112.767 154,112.5C 155.753,114.296 157.92,115.462 160.5,116C 161.252,116.671 161.586,117.504 161.5,118.5 Z"/></g>
<g><path style="opacity:0.075" fill="#f2aa79" d="M 136.5,115.5 C 134.544,116.478 132.544,117.478 130.5,118.5C 131.68,116.087 133.68,115.087 136.5,115.5 Z"/></g>
<g><path style="opacity:0.42" fill="#f19c60" d="M 169.5,115.5 C 168.833,116.167 168.167,116.833 167.5,117.5C 166.957,117.44 166.624,117.107 166.5,116.5C 167.325,115.614 168.325,115.281 169.5,115.5 Z"/></g>
<g><path style="opacity:0.075" fill="#f3ab7b" d="M 165.5,120.5 C 164.167,120.5 163.5,119.833 163.5,118.5C 163.435,118.062 163.601,117.728 164,117.5C 164.513,118.527 165.013,119.527 165.5,120.5 Z"/></g>
<g><path style="opacity:0.075" fill="#f3ac7d" d="M 283.5,120.5 C 281.658,120.277 279.825,119.943 278,119.5C 276.124,119.525 274.624,120.191 273.5,121.5C 272.209,121.737 271.209,121.404 270.5,120.5C 274.31,118.69 278.31,118.19 282.5,119C 283.056,119.383 283.389,119.883 283.5,120.5 Z"/></g>
<g><path style="opacity:0.035" fill="#f3aa79" d="M 105.5,115.5 C 103.594,120.827 101.261,125.827 98.5,130.5C 99.5259,124.787 101.859,119.787 105.5,115.5 Z"/></g>
<g><path style="opacity:0.165" fill="#f3a875" d="M 129.5,118.5 C 127.167,120.833 124.833,123.167 122.5,125.5C 122.062,125.565 121.728,125.399 121.5,125C 123.311,122.022 125.644,119.522 128.5,117.5C 129.107,117.624 129.44,117.957 129.5,118.5 Z"/></g>
<g><path style="opacity:0.588" fill="#f08e47" d="M 283.5,120.5 C 284.5,120.5 285.5,120.5 286.5,120.5C 286.631,121.376 286.298,122.043 285.5,122.5C 281.571,121.567 277.571,121.234 273.5,121.5C 274.624,120.191 276.124,119.525 278,119.5C 279.825,119.943 281.658,120.277 283.5,120.5 Z"/></g>
<g><path style="opacity:0.42" fill="#f19f65" d="M 354.5,120.5 C 354.5,120.833 354.5,121.167 354.5,121.5C 349.637,121.819 344.97,121.486 340.5,120.5C 343.199,120.534 345.699,119.867 348,118.5C 350.007,119.669 352.173,120.335 354.5,120.5 Z"/></g>
<g><path style="opacity:0.212" fill="#ef8a42" d="M 354.5,121.5 C 354.5,121.167 354.5,120.833 354.5,120.5C 357.983,120.327 360.983,121.327 363.5,123.5C 363.5,124.167 363.5,124.833 363.5,125.5C 360.901,123.369 357.901,122.036 354.5,121.5 Z"/></g>
<g><path style="opacity:0.42" fill="#f19758" d="M 431.5,122.5 C 431.265,123.097 430.765,123.43 430,123.5C 426.146,122.272 422.146,121.606 418,121.5C 414.5,121.833 411,122.167 407.5,122.5C 405.668,123.248 404.001,124.248 402.5,125.5C 401.893,125.376 401.56,125.043 401.5,124.5C 402.903,123.069 404.569,121.902 406.5,121C 410.797,120.776 414.963,119.943 419,118.5C 423.258,119.722 427.425,121.055 431.5,122.5 Z"/></g>
<g><path style="opacity:0.165" fill="#f3ab7b" d="M 224.5,120.5 C 225.167,121.167 225.833,121.833 226.5,122.5C 226.44,123.043 226.107,123.376 225.5,123.5C 224.614,122.675 224.281,121.675 224.5,120.5 Z"/></g>
<g><path style="opacity:0.278" fill="#f2a570" d="M 288.5,120.5 C 289.5,120.833 290.167,121.5 290.5,122.5C 290.5,123.167 290.167,123.5 289.5,123.5C 288.89,122.609 288.557,121.609 288.5,120.5 Z"/></g>
<g><path style="opacity:0.075" fill="#f2ab7b" d="M 380.5,184.5 C 380.831,163.327 380.497,142.327 379.5,121.5C 375.486,121.334 371.486,121.501 367.5,122C 366.663,123.011 366.33,124.178 366.5,125.5C 365.5,125.5 364.5,125.5 363.5,125.5C 363.5,124.833 363.5,124.167 363.5,123.5C 364.627,122.878 365.627,122.045 366.5,121C 371.489,120.501 376.489,120.334 381.5,120.5C 381.831,142.007 381.497,163.34 380.5,184.5 Z"/></g>
<g><path style="opacity:0.993" fill="#ea6501" d="M 439.5,121.5 C 442.833,121.5 446.167,121.5 449.5,121.5C 449.5,143.5 449.5,165.5 449.5,187.5C 448.761,187.631 448.094,187.464 447.5,187C 447.536,166.517 447.869,146.183 448.5,126C 446.084,123.385 443.25,122.885 440,124.5C 438.272,123.648 438.105,122.648 439.5,121.5 Z"/></g>
<g><path style="opacity:0.675" fill="#f29d61" d="M 204.5,120.5 C 204.414,121.496 204.748,122.329 205.5,123C 203.866,123.494 202.199,123.66 200.5,123.5C 201.926,122.659 203.26,121.659 204.5,120.5 Z"/></g>
<g><path style="opacity:0.353" fill="#f2ab7a" d="M 267.5,120.5 C 267.025,122.722 266.025,123.389 264.5,122.5C 265.222,121.449 266.222,120.782 267.5,120.5 Z"/></g>
<g><path style="opacity:1" fill="#eb7005" d="M 267.5,120.5 C 268.5,120.5 269.5,120.5 270.5,120.5C 271.209,121.404 272.209,121.737 273.5,121.5C 277.571,121.234 281.571,121.567 285.5,122.5C 286.298,122.043 286.631,121.376 286.5,120.5C 287.167,120.5 287.833,120.5 288.5,120.5C 288.557,121.609 288.89,122.609 289.5,123.5C 292.073,125.616 295.073,126.95 298.5,127.5C 298.5,128.5 298.5,129.5 298.5,130.5C 299.959,130.433 301.292,130.766 302.5,131.5C 303.833,131.5 304.5,132.167 304.5,133.5C 304.66,135.153 305.326,136.486 306.5,137.5C 306.796,139.403 307.463,141.07 308.5,142.5C 310.104,143.287 310.771,144.62 310.5,146.5C 309.674,151.316 309.174,156.316 309,161.5C 308.586,161.957 308.086,162.291 307.5,162.5C 293.039,161.176 278.706,161.176 264.5,162.5C 264.5,163.167 264.5,163.833 264.5,164.5C 266.254,167.26 268.588,169.26 271.5,170.5C 271.833,170.5 272.167,170.5 272.5,170.5C 272.958,173.309 274.291,173.976 276.5,172.5C 280.167,172.5 283.833,172.5 287.5,172.5C 287.56,173.043 287.893,173.376 288.5,173.5C 289.59,172.273 290.924,171.44 292.5,171C 293.738,170.31 293.738,169.81 292.5,169.5C 293.5,168.5 294.5,167.5 295.5,166.5C 297.461,168.963 299.628,171.297 302,173.5C 302.671,172.748 303.504,172.414 304.5,172.5C 304.833,172.5 305.167,172.5 305.5,172.5C 304.452,177.233 301.785,180.9 297.5,183.5C 296.614,184.325 296.281,185.325 296.5,186.5C 295.833,186.5 295.167,186.5 294.5,186.5C 293.922,185.453 293.256,185.62 292.5,187C 287.842,187.471 283.342,188.304 279,189.5C 276.24,189.18 273.573,188.514 271,187.5C 269.93,187.528 269.097,187.861 268.5,188.5C 267.833,188.5 267.167,188.5 266.5,188.5C 266.719,187.325 266.386,186.325 265.5,185.5C 264.893,185.624 264.56,185.957 264.5,186.5C 263.833,186.5 263.167,186.5 262.5,186.5C 262.912,184.027 261.912,182.694 259.5,182.5C 257.715,180.046 255.382,178.379 252.5,177.5C 252.5,177.167 252.5,176.833 252.5,176.5C 252.938,176.565 253.272,176.399 253.5,176C 251.501,173.745 250.168,171.245 249.5,168.5C 248.682,163.753 247.682,159.086 246.5,154.5C 247.682,149.914 248.682,145.247 249.5,140.5C 251.196,137.417 252.53,134.083 253.5,130.5C 254.117,130.611 254.617,130.944 255,131.5C 256.438,130.1 257.271,128.433 257.5,126.5C 257.833,126.5 258.167,126.5 258.5,126.5C 261.138,127.103 262.471,125.769 262.5,122.5C 263.167,122.5 263.833,122.5 264.5,122.5C 266.025,123.389 267.025,122.722 267.5,120.5 Z M 283.5,136.5 C 284.167,136.5 284.833,136.5 285.5,136.5C 286.873,138.207 288.539,139.54 290.5,140.5C 290.5,141.833 291.167,142.5 292.5,142.5C 292.5,143.5 292.5,144.5 292.5,145.5C 292.5,146.833 292.5,148.167 292.5,149.5C 283.5,149.5 274.5,149.5 265.5,149.5C 265.365,146.583 266.032,143.916 267.5,141.5C 268.5,140.5 269.5,139.5 270.5,138.5C 274.455,135.778 278.788,135.111 283.5,136.5 Z"/></g>
<g><path style="opacity:0.353" fill="#f2ab7a" d="M 337.5,120.5 C 337.025,122.722 336.025,123.389 334.5,122.5C 335.222,121.449 336.222,120.782 337.5,120.5 Z"/></g>
<g><path style="opacity:0.522" fill="#f0924d" d="M 379.5,121.5 C 380.497,142.327 380.831,163.327 380.5,184.5C 380.776,189.23 379.442,193.23 376.5,196.5C 377.143,193.802 377.976,191.135 379,188.5C 379.5,166.169 379.667,143.836 379.5,121.5 Z"/></g>
<g><path style="opacity:0.675" fill="#ee8330" d="M 449.5,121.5 C 450.498,144.327 450.831,167.327 450.5,190.5C 450.167,190.5 449.833,190.5 449.5,190.5C 449.167,190.5 448.833,190.5 448.5,190.5C 448.557,189.391 448.89,188.391 449.5,187.5C 449.5,165.5 449.5,143.5 449.5,121.5 Z"/></g>
<g><path style="opacity:0.075" fill="#f3ad7f" d="M 450.5,190.5 C 450.831,167.327 450.498,144.327 449.5,121.5C 446.167,121.5 442.833,121.5 439.5,121.5C 437.088,121.694 436.088,123.027 436.5,125.5C 434.821,125.715 433.821,125.048 433.5,123.5C 434.478,123.189 435.145,122.522 435.5,121.5C 441.128,120.505 446.794,120.171 452.5,120.5C 452.667,141.836 452.5,163.169 452,184.5C 451.809,186.708 451.309,188.708 450.5,190.5 Z"/></g>
<g><path style="opacity:1" fill="#eb7004" d="M 337.5,120.5 C 338.5,120.5 339.5,120.5 340.5,120.5C 344.97,121.486 349.637,121.819 354.5,121.5C 357.901,122.036 360.901,123.369 363.5,125.5C 364.5,125.5 365.5,125.5 366.5,125.5C 366.33,124.178 366.663,123.011 367.5,122C 371.486,121.501 375.486,121.334 379.5,121.5C 379.667,143.836 379.5,166.169 379,188.5C 377.976,191.135 377.143,193.802 376.5,196.5C 376.316,199.337 374.982,201.337 372.5,202.5C 371.5,202.833 370.833,203.5 370.5,204.5C 369.5,204.833 368.833,205.5 368.5,206.5C 368.5,208.5 367.5,209.5 365.5,209.5C 363.973,209.427 362.973,210.094 362.5,211.5C 362.167,211.5 361.833,211.5 361.5,211.5C 359.973,211.427 358.973,212.094 358.5,213.5C 357.833,213.5 357.167,213.5 356.5,213.5C 354.872,212.147 353.538,212.481 352.5,214.5C 347.833,214.5 343.167,214.5 338.5,214.5C 337.947,212.448 336.947,212.115 335.5,213.5C 333.282,213.386 331.282,212.72 329.5,211.5C 328.79,207.639 326.457,205.973 322.5,206.5C 321.19,203.745 321.856,201.412 324.5,199.5C 324.56,200.043 324.893,200.376 325.5,200.5C 327.687,196.963 330.687,194.63 334.5,193.5C 334.5,194.5 334.5,195.5 334.5,196.5C 341.699,199.465 348.699,199.132 355.5,195.5C 355.5,194.833 355.5,194.167 355.5,193.5C 356.5,191.833 357.833,190.5 359.5,189.5C 361.176,188.817 361.843,187.483 361.5,185.5C 360.167,185.5 358.833,185.5 357.5,185.5C 351.488,186.725 345.488,187.058 339.5,186.5C 338.833,186.167 338.167,185.833 337.5,185.5C 336.504,185.586 335.671,185.252 335,184.5C 334.691,183.234 334.191,182.067 333.5,181C 331.567,180.749 329.734,180.249 328,179.5C 327.667,179.833 327.333,180.167 327,180.5C 325.301,178.304 323.467,176.304 321.5,174.5C 320.167,174.5 319.5,173.833 319.5,172.5C 318.491,169.951 317.658,167.285 317,164.5C 316.828,157.654 316.328,150.987 315.5,144.5C 316.172,143.733 317.005,143.066 318,142.5C 319.131,139.555 319.964,136.555 320.5,133.5C 321.167,133.5 321.5,133.167 321.5,132.5C 324.167,131.833 325.833,130.167 326.5,127.5C 326.833,126.833 327.167,126.167 327.5,125.5C 330.425,126.866 332.091,125.866 332.5,122.5C 333.167,122.5 333.833,122.5 334.5,122.5C 336.025,123.389 337.025,122.722 337.5,120.5 Z M 345.5,138.5 C 347.833,138.5 350.167,138.5 352.5,138.5C 356.754,140.417 360.087,143.417 362.5,147.5C 362.5,147.833 362.5,148.167 362.5,148.5C 363.624,153.147 363.624,157.813 362.5,162.5C 359.833,163.833 357.833,165.833 356.5,168.5C 356.167,168.5 355.833,168.5 355.5,168.5C 350.853,169.618 346.186,169.618 341.5,168.5C 340.167,166.5 338.833,164.5 337.5,162.5C 336.833,161.167 336.167,159.833 335.5,158.5C 335.5,157.167 335.5,155.833 335.5,154.5C 335.5,153.833 335.5,153.167 335.5,152.5C 335.5,151.833 335.5,151.167 335.5,150.5C 335.831,148.678 336.498,147.011 337.5,145.5C 338.833,144.167 340.167,142.833 341.5,141.5C 341.5,140.833 341.833,140.5 342.5,140.5C 344.027,140.573 345.027,139.906 345.5,138.5 Z"/></g>
<g><path style="opacity:1" fill="#eb7004" d="M 431.5,122.5 C 432.492,122.328 433.158,122.662 433.5,123.5C 433.821,125.048 434.821,125.715 436.5,125.5C 436.088,123.027 437.088,121.694 439.5,121.5C 438.105,122.648 438.272,123.648 440,124.5C 443.25,122.885 446.084,123.385 448.5,126C 447.869,146.183 447.536,166.517 447.5,187C 448.094,187.464 448.761,187.631 449.5,187.5C 448.89,188.391 448.557,189.391 448.5,190.5C 447.213,193.407 446.213,196.407 445.5,199.5C 445.672,200.492 445.338,201.158 444.5,201.5C 441.167,202.833 438.833,205.167 437.5,208.5C 437.158,209.338 436.492,209.672 435.5,209.5C 435.565,209.062 435.399,208.728 435,208.5C 434.302,209.691 433.469,210.691 432.5,211.5C 432.167,211.5 431.833,211.5 431.5,211.5C 431.44,210.957 431.107,210.624 430.5,210.5C 429.378,211.63 428.044,212.297 426.5,212.5C 424.973,212.427 423.973,213.094 423.5,214.5C 418.5,214.5 413.5,214.5 408.5,214.5C 407.779,212.618 406.779,212.285 405.5,213.5C 404.833,213.5 404.167,213.5 403.5,213.5C 402.928,212.027 402.095,210.693 401,209.5C 400.667,209.833 400.333,210.167 400,210.5C 399.667,209.5 399.333,208.5 399,207.5C 398,207.833 397,208.167 396,208.5C 395.583,207.244 394.75,206.577 393.5,206.5C 392.167,204.833 392.167,203.167 393.5,201.5C 394.5,201.167 395.167,200.5 395.5,199.5C 396.5,199.167 397.167,198.5 397.5,197.5C 399.5,196.167 401.167,194.5 402.5,192.5C 403.492,192.328 404.158,192.662 404.5,193.5C 404.5,194.5 404.5,195.5 404.5,196.5C 405.959,196.433 407.292,196.766 408.5,197.5C 412.702,197.817 416.702,197.483 420.5,196.5C 420.5,196.167 420.5,195.833 420.5,195.5C 422.781,195.923 424.448,195.256 425.5,193.5C 426.222,192.449 427.222,191.782 428.5,191.5C 430.975,190.313 431.975,188.313 431.5,185.5C 429.833,185.5 428.167,185.5 426.5,185.5C 426.5,186.5 426.5,187.5 426.5,188.5C 420.833,188.5 415.167,188.5 409.5,188.5C 409.719,187.325 409.386,186.325 408.5,185.5C 407.893,185.624 407.56,185.957 407.5,186.5C 406.5,186.5 405.5,186.5 404.5,186.5C 404.5,185.5 404.5,184.5 404.5,183.5C 401.959,181.401 398.959,180.068 395.5,179.5C 393.071,178.735 391.738,177.069 391.5,174.5C 391.938,174.565 392.272,174.399 392.5,174C 388.902,169.43 386.902,164.263 386.5,158.5C 386.819,153.637 386.486,148.97 385.5,144.5C 385.427,142.973 386.094,141.973 387.5,141.5C 388.219,139.909 389.219,138.409 390.5,137C 390.272,136.601 389.938,136.435 389.5,136.5C 389.5,136.167 389.5,135.833 389.5,135.5C 391.923,134.05 393.923,132.05 395.5,129.5C 397.531,128.461 398.864,126.795 399.5,124.5C 400.167,124.5 400.833,124.5 401.5,124.5C 401.56,125.043 401.893,125.376 402.5,125.5C 404.001,124.248 405.668,123.248 407.5,122.5C 411,122.167 414.5,121.833 418,121.5C 422.146,121.606 426.146,122.272 430,123.5C 430.765,123.43 431.265,123.097 431.5,122.5 Z M 415.5,138.5 C 417.833,138.5 420.167,138.5 422.5,138.5C 423.29,139.401 424.29,140.068 425.5,140.5C 425.833,140.5 426.167,140.5 426.5,140.5C 428.785,142.595 430.785,144.928 432.5,147.5C 432.5,147.833 432.5,148.167 432.5,148.5C 433.679,153.757 433.012,158.757 430.5,163.5C 429.167,164.833 427.833,166.167 426.5,167.5C 426.5,168.167 426.167,168.5 425.5,168.5C 420.141,170.105 415.141,169.439 410.5,166.5C 409.694,165.272 408.694,164.272 407.5,163.5C 405.722,159.435 405.055,155.101 405.5,150.5C 406.776,146.419 409.109,143.086 412.5,140.5C 414.027,140.573 415.027,139.906 415.5,138.5 Z"/></g>
<g><path style="opacity:0.075" fill="#f2a876" d="M 332.5,122.5 C 332.091,125.866 330.425,126.866 327.5,125.5C 329.294,124.767 330.961,123.767 332.5,122.5 Z"/></g>
<g><path style="opacity:0.831" fill="#f29859" d="M 228.5,122.5 C 230.5,124.167 232.5,125.833 234.5,127.5C 232.5,127.167 230.5,126.833 228.5,126.5C 228.5,125.167 228.5,123.833 228.5,122.5 Z"/></g>
<g><path style="opacity:0.075" fill="#f2a570" d="M 262.5,122.5 C 262.471,125.769 261.138,127.103 258.5,126.5C 258.393,124.621 258.893,124.288 260,125.5C 260.852,124.429 261.685,123.429 262.5,122.5 Z"/></g>
<g><path style="opacity:0.583" fill="#ee8032" d="M 290.5,122.5 C 293.014,122.754 295.348,123.587 297.5,125C 298.252,125.671 298.586,126.504 298.5,127.5C 295.073,126.95 292.073,125.616 289.5,123.5C 290.167,123.5 290.5,123.167 290.5,122.5 Z"/></g>
<g><path style="opacity:0.035" fill="#f3ab7b" d="M 234.5,128.5 C 236.048,128.821 236.715,129.821 236.5,131.5C 234.65,130.758 233.984,129.758 234.5,128.5 Z"/></g>
<g><path style="opacity:0.278" fill="#f29b5e" d="M 257.5,126.5 C 257.271,128.433 256.438,130.1 255,131.5C 254.617,130.944 254.117,130.611 253.5,130.5C 254.5,128.833 255.833,127.5 257.5,126.5 Z"/></g>
<g><path style="opacity:0.675" fill="#f0904a" d="M 399.5,124.5 C 398.864,126.795 397.531,128.461 395.5,129.5C 396.08,127.251 397.413,125.585 399.5,124.5 Z"/></g>
<g><path style="opacity:0.831" fill="#f19554" d="M 298.5,127.5 C 300.5,128.167 301.833,129.5 302.5,131.5C 301.292,130.766 299.959,130.433 298.5,130.5C 298.5,129.5 298.5,128.5 298.5,127.5 Z"/></g>
<g><path style="opacity:0.035" fill="#f3a773" d="M 122.5,127.5 C 119.097,132.898 117.763,138.898 118.5,145.5C 117.833,145.5 117.167,145.5 116.5,145.5C 117.436,141.265 117.769,136.931 117.5,132.5C 118.301,130.958 118.634,129.292 118.5,127.5C 119.833,127.5 121.167,127.5 122.5,127.5 Z"/></g>
<g><path style="opacity:0.42" fill="#f19f65" d="M 326.5,127.5 C 325.833,130.167 324.167,131.833 321.5,132.5C 322.833,130.5 324.5,128.833 326.5,127.5 Z"/></g>
<g><path style="opacity:0.522" fill="#ef8f49" d="M 282.5,134.5 C 279.061,134.253 275.728,134.586 272.5,135.5C 273.694,134.223 275.36,133.556 277.5,133.5C 279.369,133.507 281.036,133.84 282.5,134.5 Z"/></g>
<g><path style="opacity:0.439" fill="#f19251" d="M 395.5,129.5 C 393.923,132.05 391.923,134.05 389.5,135.5C 390.614,132.596 392.614,130.596 395.5,129.5 Z"/></g>
<g><path style="opacity:0.075" fill="#f3ab7a" d="M 282.5,134.5 C 283.338,134.842 283.672,135.508 283.5,136.5C 278.788,135.111 274.455,135.778 270.5,138.5C 270.285,136.821 270.952,135.821 272.5,135.5C 275.728,134.586 279.061,134.253 282.5,134.5 Z"/></g>
<g><path style="opacity:0.165" fill="#f3ae80" d="M 304.5,133.5 C 306.176,134.183 306.843,135.517 306.5,137.5C 305.326,136.486 304.66,135.153 304.5,133.5 Z"/></g>
<g><path style="opacity:0.165" fill="#f3ae7f" d="M 238.5,134.5 C 240.233,136.355 241.233,138.688 241.5,141.5C 240.833,141.5 240.167,141.5 239.5,141.5C 239.896,138.956 239.229,136.789 237.5,135C 237.728,134.601 238.062,134.435 238.5,134.5 Z"/></g>
<g><path style="opacity:0.075" fill="#f2a570" d="M 253.5,130.5 C 252.53,134.083 251.196,137.417 249.5,140.5C 248.833,140.5 248.5,140.167 248.5,139.5C 249.317,136.019 250.983,133.019 253.5,130.5 Z"/></g>
<g><path style="opacity:0.212" fill="#f19758" d="M 285.5,136.5 C 288.344,136.343 290.011,137.676 290.5,140.5C 288.539,139.54 286.873,138.207 285.5,136.5 Z"/></g>
<g><path style="opacity:0.165" fill="#f3aa79" d="M 98.5,130.5 C 98.5646,138.543 98.5646,146.377 98.5,154C 100.54,155.769 102.04,157.935 103,160.5C 103.272,163.432 104.438,165.932 106.5,168C 106.272,168.399 105.938,168.565 105.5,168.5C 101.149,163.76 98.4827,158.094 97.5,151.5C 96.3288,144.075 96.6622,137.075 98.5,130.5 Z"/></g>
<g><path style="opacity:0.353" fill="#ee8334" d="M 207.5,138.5 C 207.5,138.167 207.5,137.833 207.5,137.5C 210.833,137.5 214.167,137.5 217.5,137.5C 217.5,138.5 217.5,139.5 217.5,140.5C 214.416,138.899 211.083,138.232 207.5,138.5 Z"/></g>
<g><path style="opacity:0.353" fill="#f2a874" d="M 389.5,136.5 C 389.938,136.435 390.272,136.601 390.5,137C 389.219,138.409 388.219,139.909 387.5,141.5C 387.12,139.302 387.787,137.635 389.5,136.5 Z"/></g>
<g><path style="opacity:0.075" fill="#f2a875" d="M 207.5,137.5 C 207.5,137.833 207.5,138.167 207.5,138.5C 205.508,139.83 203.508,141.164 201.5,142.5C 202.638,139.914 204.638,138.247 207.5,137.5 Z"/></g>
<g><path style="opacity:0.165" fill="#f3ad7e" d="M 306.5,137.5 C 308.256,138.552 308.923,140.219 308.5,142.5C 307.463,141.07 306.796,139.403 306.5,137.5 Z"/></g>
<g><path style="opacity:0.075" fill="#f2ab7b" d="M 422.5,138.5 C 424.179,138.285 425.179,138.952 425.5,140.5C 424.29,140.068 423.29,139.401 422.5,138.5 Z"/></g>
<g><path style="opacity:0.212" fill="#ee8639" d="M 117.5,132.5 C 117.769,136.931 117.436,141.265 116.5,145.5C 115.853,144.726 115.52,143.726 115.5,142.5C 115.901,138.976 116.567,135.642 117.5,132.5 Z"/></g>
<g><path style="opacity:0.035" fill="#f3ac7d" d="M 345.5,138.5 C 345.027,139.906 344.027,140.573 342.5,140.5C 342.973,139.094 343.973,138.427 345.5,138.5 Z"/></g>
<g><path style="opacity:0.075" fill="#f3ab7b" d="M 415.5,138.5 C 415.027,139.906 414.027,140.573 412.5,140.5C 412.973,139.094 413.973,138.427 415.5,138.5 Z"/></g>
<g><path style="opacity:0.165" fill="#f3ac7d" d="M 426.5,140.5 C 428.322,140.831 429.989,141.498 431.5,142.5C 431.703,144.044 432.37,145.378 433.5,146.5C 433.376,147.107 433.043,147.44 432.5,147.5C 430.785,144.928 428.785,142.595 426.5,140.5 Z"/></g>
<g><path style="opacity:0.278" fill="#f2a36b" d="M 290.5,140.5 C 291.833,140.5 292.5,141.167 292.5,142.5C 292.5,141.167 291.833,140.5 290.5,140.5 Z"/></g>
<g><path style="opacity:0.675" fill="#f19a5d" d="M 412.5,140.5 C 409.109,143.086 406.776,146.419 405.5,150.5C 405.167,150.5 404.833,150.5 404.5,150.5C 405.167,147.5 405.833,144.5 406.5,141.5C 408.5,141.167 410.5,140.833 412.5,140.5 Z"/></g>
<g><path style="opacity:0.075" fill="#f3ab7a" d="M 241.5,141.5 C 242.338,141.842 242.672,142.508 242.5,143.5C 240.302,143.591 239.969,142.925 241.5,141.5 Z"/></g>
<g><path style="opacity:0.035" fill="#f2a875" d="M 320.5,133.5 C 319.964,136.555 319.131,139.555 318,142.5C 317.005,143.066 316.172,143.733 315.5,144.5C 315.815,148.371 315.482,152.038 314.5,155.5C 314.174,151.116 314.508,146.783 315.5,142.5C 316.039,139.834 317.372,137.667 319.5,136C 318.434,134.841 318.767,134.008 320.5,133.5 Z"/></g>
<g><path style="opacity:0.035" fill="#f2a46d" d="M 352.5,138.5 C 358.741,138.883 362.074,141.883 362.5,147.5C 360.087,143.417 356.754,140.417 352.5,138.5 Z"/></g>
<g><path style="opacity:0.035" fill="#f2a671" d="M 201.5,142.5 C 201.768,144.099 201.434,145.432 200.5,146.5C 199.147,144.872 199.481,143.538 201.5,142.5 Z"/></g>
<g><path style="opacity:0.129" fill="#ed7e2a" d="M 239.5,141.5 C 240.167,141.5 240.833,141.5 241.5,141.5C 239.969,142.925 240.302,143.591 242.5,143.5C 242.5,158.167 242.5,172.833 242.5,187.5C 242.167,187.5 241.833,187.5 241.5,187.5C 242.067,172.032 241.4,156.699 239.5,141.5 Z"/></g>
<g><path style="opacity:0.718" fill="#f0904b" d="M 341.5,141.5 C 340.167,142.833 338.833,144.167 337.5,145.5C 336.833,145.5 336.167,145.5 335.5,145.5C 336.031,142.221 338.031,140.887 341.5,141.5 Z"/></g>
<g><path style="opacity:0.303" fill="#f3aa78" d="M 246.5,142.5 C 247.993,145.113 247.326,147.113 244.5,148.5C 245.72,146.718 246.386,144.718 246.5,142.5 Z"/></g>
<g><path style="opacity:0.035" fill="#f3aa79" d="M 335.5,145.5 C 336.167,145.5 336.833,145.5 337.5,145.5C 336.498,147.011 335.831,148.678 335.5,150.5C 334.28,148.95 334.28,147.284 335.5,145.5 Z"/></g>
<g><path style="opacity:0.165" fill="#f3ae80" d="M 200.5,147.5 C 199.535,161.118 199.202,174.784 199.5,188.5C 192.313,188.825 185.313,188.491 178.5,187.5C 184.167,187.5 189.833,187.5 195.5,187.5C 196.5,187.5 197.5,187.5 198.5,187.5C 197.852,173.791 198.519,160.458 200.5,147.5 Z"/></g>
<g><path style="opacity:0.533" fill="#ec7a25" d="M 248.5,139.5 C 248.5,140.167 248.833,140.5 249.5,140.5C 248.682,145.247 247.682,149.914 246.5,154.5C 247.682,159.086 248.682,163.753 249.5,168.5C 248.391,168.443 247.391,168.11 246.5,167.5C 246.5,166.833 246.5,166.167 246.5,165.5C 247.867,163.21 247.2,161.544 244.5,160.5C 244.5,156.5 244.5,152.5 244.5,148.5C 247.326,147.113 247.993,145.113 246.5,142.5C 246.285,140.821 246.952,139.821 248.5,139.5 Z"/></g>
<g><path style="opacity:0.353" fill="#f2a570" d="M 267.5,141.5 C 266.032,143.916 265.365,146.583 265.5,149.5C 274.5,149.5 283.5,149.5 292.5,149.5C 292.5,148.167 292.5,146.833 292.5,145.5C 294.71,146.455 295.043,147.955 293.5,150C 283.172,150.5 272.839,150.666 262.5,150.5C 262.539,147.679 263.205,145.012 264.5,142.5C 265.417,141.873 266.417,141.539 267.5,141.5 Z"/></g>
<g><path style="opacity:0.522" fill="#f09452" d="M 385.5,144.5 C 386.486,148.97 386.819,153.637 386.5,158.5C 385.833,158.167 385.167,157.833 384.5,157.5C 384.5,157.167 384.5,156.833 384.5,156.5C 385.473,154.052 385.806,151.385 385.5,148.5C 385.5,147.167 385.5,145.833 385.5,144.5 Z"/></g>
<g><path style="opacity:0.035" fill="#f3ab7b" d="M 118.5,149.5 C 118.557,150.609 118.89,151.609 119.5,152.5C 117.448,151.947 117.115,150.947 118.5,149.5 Z"/></g>
<g><path style="opacity:0.675" fill="#f0914d" d="M 315.5,144.5 C 316.328,150.987 316.828,157.654 317,164.5C 317.658,167.285 318.491,169.951 319.5,172.5C 315.441,167.686 313.774,162.019 314.5,155.5C 315.482,152.038 315.815,148.371 315.5,144.5 Z"/></g>
<g><path style="opacity:0.165" fill="#f3af81" d="M 385.5,148.5 C 385.806,151.385 385.473,154.052 384.5,156.5C 383.541,153.67 383.874,151.004 385.5,148.5 Z"/></g>
<g><path style="opacity:0.675" fill="#ed7e29" d="M 431.5,142.5 C 434.537,142.987 435.537,144.487 434.5,147C 435.981,149.228 436.648,151.728 436.5,154.5C 436.444,156.64 435.777,158.306 434.5,159.5C 436.295,155.261 435.629,151.595 432.5,148.5C 432.5,148.167 432.5,147.833 432.5,147.5C 433.043,147.44 433.376,147.107 433.5,146.5C 432.37,145.378 431.703,144.044 431.5,142.5 Z"/></g>
<g><path style="opacity:0.075" fill="#f3aa78" d="M 119.5,152.5 C 120.233,154.294 121.233,155.961 122.5,157.5C 121.5,157.5 120.5,157.5 119.5,157.5C 119.5,155.833 119.5,154.167 119.5,152.5 Z"/></g>
<g><path style="opacity:0.075" fill="#f2aa7a" d="M 335.5,152.5 C 335.5,153.167 335.5,153.833 335.5,154.5C 334.35,155.85 333.683,155.684 333.5,154C 333.836,152.97 334.503,152.47 335.5,152.5 Z"/></g>
<g><path style="opacity:0.353" fill="#ed7e2a" d="M 217.5,140.5 C 219.638,140.703 221.305,141.703 222.5,143.5C 223.826,157.661 223.826,171.661 222.5,185.5C 222.829,171.656 222.496,157.99 221.5,144.5C 219.915,143.467 218.581,142.134 217.5,140.5 Z"/></g>
<g><path style="opacity:0.075" fill="#f2a876" d="M 432.5,148.5 C 435.629,151.595 436.295,155.261 434.5,159.5C 434.771,161.38 434.104,162.713 432.5,163.5C 431.833,163.5 431.167,163.5 430.5,163.5C 433.012,158.757 433.679,153.757 432.5,148.5 Z"/></g>
<g><path style="opacity:0.212" fill="#f09351" d="M 404.5,150.5 C 404.833,150.5 405.167,150.5 405.5,150.5C 405.055,155.101 405.722,159.435 407.5,163.5C 405.373,162.602 404.206,160.936 404,158.5C 403.199,155.633 403.366,152.966 404.5,150.5 Z"/></g>
<g><path style="opacity:0.075" fill="#f2a875" d="M 362.5,148.5 C 363.496,148.414 364.329,148.748 365,149.5C 366.155,154.384 365.322,158.717 362.5,162.5C 363.624,157.813 363.624,153.147 362.5,148.5 Z"/></g>
<g><path style="opacity:0.075" fill="#f3ab7b" d="M 221.5,144.5 C 222.496,157.99 222.829,171.656 222.5,185.5C 228.412,187.456 234.745,188.123 241.5,187.5C 241.833,187.5 242.167,187.5 242.5,187.5C 237.433,188.188 232.267,188.855 227,189.5C 225.301,188.594 223.467,188.261 221.5,188.5C 221.5,173.833 221.5,159.167 221.5,144.5 Z"/></g>
<g><path style="opacity:0.035" fill="#f3aa79" d="M 335.5,158.5 C 336.167,159.833 336.833,161.167 337.5,162.5C 334.691,162.042 334.024,160.709 335.5,158.5 Z"/></g>
<g><path style="opacity:0.035" fill="#f2a976" d="M 122.5,158.5 C 124.326,160.147 125.66,162.147 126.5,164.5C 124.621,163.103 122.954,161.437 121.5,159.5C 121.624,158.893 121.957,158.56 122.5,158.5 Z"/></g>
<g><path style="opacity:0.194" fill="#ef8d47" d="M 310.5,146.5 C 310.5,152.167 310.5,157.833 310.5,163.5C 296.255,163.676 281.588,163.676 266.5,163.5C 266.158,162.662 265.492,162.328 264.5,162.5C 278.706,161.176 293.039,161.176 307.5,162.5C 308.086,162.291 308.586,161.957 309,161.5C 309.174,156.316 309.674,151.316 310.5,146.5 Z"/></g>
<g><path style="opacity:0.278" fill="#f2a773" d="M 244.5,160.5 C 247.2,161.544 247.867,163.21 246.5,165.5C 246.169,163.678 245.502,162.011 244.5,160.5 Z"/></g>
<g><path style="opacity:0.035" fill="#f3a977" d="M 264.5,162.5 C 265.492,162.328 266.158,162.662 266.5,163.5C 266.5,163.833 266.5,164.167 266.5,164.5C 265.833,164.5 265.167,164.5 264.5,164.5C 264.5,163.833 264.5,163.167 264.5,162.5 Z"/></g>
<g><path style="opacity:0.129" fill="#ef8e48" d="M 430.5,163.5 C 431.167,163.5 431.833,163.5 432.5,163.5C 431.856,166.804 429.856,168.138 426.5,167.5C 427.833,166.167 429.167,164.833 430.5,163.5 Z"/></g>
<g><path style="opacity:0.035" fill="#f2a977" d="M 126.5,164.5 C 128.027,164.427 129.027,165.094 129.5,166.5C 127.973,166.573 126.973,165.906 126.5,164.5 Z"/></g>
<g><path style="opacity:0.316" fill="#f2a36d" d="M 169.5,169.5 C 167.616,169.288 166.283,168.288 165.5,166.5C 163.929,167.309 162.262,167.643 160.5,167.5C 162.636,166.488 164.969,165.155 167.5,163.5C 167.253,165.858 167.919,167.858 169.5,169.5 Z"/></g>
<g><path style="opacity:0.241" fill="#ef873d" d="M 264.5,164.5 C 265.167,164.5 265.833,164.5 266.5,164.5C 268.537,166.202 270.203,168.202 271.5,170.5C 268.588,169.26 266.254,167.26 264.5,164.5 Z"/></g>
<g><path style="opacity:0.522" fill="#f19758" d="M 362.5,162.5 C 361.117,165.216 359.117,167.216 356.5,168.5C 357.833,165.833 359.833,163.833 362.5,162.5 Z"/></g>
<g><path style="opacity:0.353" fill="#f2a46e" d="M 131.5,166.5 C 132.167,167.167 132.833,167.833 133.5,168.5C 133.44,169.043 133.107,169.376 132.5,169.5C 131.614,168.675 131.281,167.675 131.5,166.5 Z"/></g>
<g><path style="opacity:0.075" fill="#f3ab7b" d="M 157.5,168.5 C 157.5,169.167 157.5,169.833 157.5,170.5C 156.833,170.5 156.167,170.5 155.5,170.5C 155.5,169.167 156.167,168.5 157.5,168.5 Z"/></g>
<g><path style="opacity:0.035" fill="#f2a774" d="M 169.5,169.5 C 170.404,170.209 170.737,171.209 170.5,172.5C 168.519,171.895 168.185,170.895 169.5,169.5 Z"/></g>
<g><path style="opacity:0.075" fill="#f3aa79" d="M 341.5,168.5 C 346.186,169.618 350.853,169.618 355.5,168.5C 355.5,168.833 355.5,169.167 355.5,169.5C 351.901,170.344 348.234,170.677 344.5,170.5C 342.973,170.573 341.973,169.906 341.5,168.5 Z"/></g>
<g><path style="opacity:0.316" fill="#f2a976" d="M 410.5,166.5 C 415.141,169.439 420.141,170.105 425.5,168.5C 425.5,168.833 425.5,169.167 425.5,169.5C 421.936,170.423 418.269,170.756 414.5,170.5C 412.227,170.043 410.894,168.71 410.5,166.5 Z"/></g>
<g><path style="opacity:0.353" fill="#f2a570" d="M 135.5,168.5 C 136.5,168.833 137.167,169.5 137.5,170.5C 137.5,170.833 137.5,171.167 137.5,171.5C 135.952,171.179 135.285,170.179 135.5,168.5 Z"/></g>
<g><path style="opacity:0.241" fill="#ed8232" d="M 137.5,171.5 C 137.5,171.167 137.5,170.833 137.5,170.5C 139.5,170.5 141.5,170.5 143.5,170.5C 145.594,172.994 147.594,172.994 149.5,170.5C 151.5,170.5 153.5,170.5 155.5,170.5C 156.167,170.5 156.833,170.5 157.5,170.5C 153.984,171.551 150.317,172.551 146.5,173.5C 143.53,172.574 140.53,171.908 137.5,171.5 Z"/></g>
<g><path style="opacity:0.212" fill="#f19453" d="M 292.5,169.5 C 293.738,169.81 293.738,170.31 292.5,171C 290.924,171.44 289.59,172.273 288.5,173.5C 287.893,173.376 287.56,173.043 287.5,172.5C 288.768,170.953 290.435,169.953 292.5,169.5 Z"/></g>
<g><path style="opacity:0.675" fill="#ee883b" d="M 355.5,169.5 C 355.389,170.117 355.056,170.617 354.5,171C 350.973,171.808 347.64,171.641 344.5,170.5C 348.234,170.677 351.901,170.344 355.5,169.5 Z"/></g>
<g><path style="opacity:0.035" fill="#f2a46f" d="M 384.5,157.5 C 385.167,157.833 385.833,158.167 386.5,158.5C 386.902,164.263 388.902,169.43 392.5,174C 392.272,174.399 391.938,174.565 391.5,174.5C 390.141,173.993 389.141,172.993 388.5,171.5C 386.457,167.014 385.123,162.348 384.5,157.5 Z"/></g>
<g><path style="opacity:0.522" fill="#ef8b40" d="M 425.5,169.5 C 424.129,170.787 422.295,171.453 420,171.5C 417.967,171.494 416.134,171.161 414.5,170.5C 418.269,170.756 421.936,170.423 425.5,169.5 Z"/></g>
<g><path style="opacity:0.165" fill="#f3ae7f" d="M 143.5,170.5 C 145.611,171.38 147.611,171.38 149.5,170.5C 147.594,172.994 145.594,172.994 143.5,170.5 Z"/></g>
<g><path style="opacity:0.212" fill="#f08f4a" d="M 304.5,172.5 C 303.504,172.414 302.671,172.748 302,173.5C 299.628,171.297 297.461,168.963 295.5,166.5C 295.897,165.475 296.563,165.308 297.5,166C 299.559,168.656 301.893,170.822 304.5,172.5 Z"/></g>
<g><path style="opacity:0.316" fill="#f2a46e" d="M 272.5,170.5 C 273.605,171.6 274.938,172.267 276.5,172.5C 274.291,173.976 272.958,173.309 272.5,170.5 Z"/></g>
<g><path style="opacity:0.278" fill="#f3a977" d="M 305.5,172.5 C 306.793,174.364 306.793,176.364 305.5,178.5C 302.697,181.399 299.697,184.066 296.5,186.5C 296.281,185.325 296.614,184.325 297.5,183.5C 301.785,180.9 304.452,177.233 305.5,172.5 Z"/></g>
<g><path style="opacity:0.42" fill="#f1a068" d="M 117.5,179.5 C 117.5,180.167 117.5,180.833 117.5,181.5C 113.833,178.5 110.5,175.167 107.5,171.5C 107.435,171.062 107.601,170.728 108,170.5C 111.036,173.704 114.203,176.704 117.5,179.5 Z"/></g>
<g><path style="opacity:0.075" fill="#f2a46e" d="M 246.5,167.5 C 247.391,168.11 248.391,168.443 249.5,168.5C 250.168,171.245 251.501,173.745 253.5,176C 253.272,176.399 252.938,176.565 252.5,176.5C 249.778,174.076 247.778,171.076 246.5,167.5 Z"/></g>
<g><path style="opacity:0.075" fill="#f2a977" d="M 172.5,175.5 C 173.649,175.791 174.316,176.624 174.5,178C 174.613,179.699 173.947,180.866 172.5,181.5C 172.5,179.5 172.5,177.5 172.5,175.5 Z"/></g>
<g><path style="opacity:0.278" fill="#f08d46" d="M 252.5,177.5 C 255.382,178.379 257.715,180.046 259.5,182.5C 258.833,182.5 258.167,182.5 257.5,182.5C 255.5,181.167 253.833,179.5 252.5,177.5 Z"/></g>
<g><path style="opacity:1" fill="#ee8032" d="M 321.5,174.5 C 323.467,176.304 325.301,178.304 327,180.5C 327.333,180.167 327.667,179.833 328,179.5C 329.734,180.249 331.567,180.749 333.5,181C 334.191,182.067 334.691,183.234 335,184.5C 335.671,185.252 336.504,185.586 337.5,185.5C 337.5,185.833 337.5,186.167 337.5,186.5C 333.62,185.702 329.954,184.202 326.5,182C 324.173,179.858 322.507,177.358 321.5,174.5 Z"/></g>
<g><path style="opacity:0.241" fill="#ef8a42" d="M 395.5,179.5 C 398.959,180.068 401.959,181.401 404.5,183.5C 404.5,184.5 404.5,185.5 404.5,186.5C 401.734,185.247 399.067,183.747 396.5,182C 395.748,181.329 395.414,180.496 395.5,179.5 Z"/></g>
<g><path style="opacity:0.212" fill="#f08f4b" d="M 117.5,179.5 C 119.644,181.814 122.31,183.147 125.5,183.5C 125.5,184.5 125.5,185.5 125.5,186.5C 122.707,184.97 120.04,183.303 117.5,181.5C 117.5,180.833 117.5,180.167 117.5,179.5 Z"/></g>
<g><path style="opacity:0.278" fill="#f2a671" d="M 172.5,181.5 C 171.074,182.341 169.74,183.341 168.5,184.5C 168.5,183.5 168.5,182.5 168.5,181.5C 169.833,181.5 171.167,181.5 172.5,181.5 Z"/></g>
<g><path style="opacity:0.035" fill="#f2a773" d="M 257.5,182.5 C 258.167,182.5 258.833,182.5 259.5,182.5C 261.912,182.694 262.912,184.027 262.5,186.5C 260.581,185.388 258.914,184.054 257.5,182.5 Z"/></g>
<g><path style="opacity:0.035" fill="#f3a977" d="M 166.5,184.5 C 166.167,185.5 165.5,186.167 164.5,186.5C 164.461,185.244 164.961,184.244 166,183.5C 166.399,183.728 166.565,184.062 166.5,184.5 Z"/></g>
<g><path style="opacity:0.035" fill="#f3aa79" d="M 127.5,186.5 C 129.025,185.611 130.025,186.278 130.5,188.5C 129.222,188.218 128.222,187.551 127.5,186.5 Z"/></g>
<g><path style="opacity:0.075" fill="#f2aa7a" d="M 337.5,185.5 C 338.167,185.833 338.833,186.167 339.5,186.5C 339.5,187.167 339.5,187.833 339.5,188.5C 338.5,188.167 337.833,187.5 337.5,186.5C 337.5,186.167 337.5,185.833 337.5,185.5 Z"/></g>
<g><path style="opacity:0.589" fill="#ee7f2f" d="M 357.5,185.5 C 357.5,186.167 357.5,186.833 357.5,187.5C 351.69,188.49 345.69,188.823 339.5,188.5C 339.5,187.833 339.5,187.167 339.5,186.5C 345.488,187.058 351.488,186.725 357.5,185.5 Z"/></g>
<g><path style="opacity:0.165" fill="#f3ac7d" d="M 428.5,191.5 C 428.48,189.857 429.147,188.524 430.5,187.5C 430.167,187.167 429.833,186.833 429.5,186.5C 428.482,187.193 427.482,187.859 426.5,188.5C 426.5,187.5 426.5,186.5 426.5,185.5C 428.167,185.5 429.833,185.5 431.5,185.5C 431.975,188.313 430.975,190.313 428.5,191.5 Z"/></g>
<g><path style="opacity:0.42" fill="#f19e63" d="M 156.5,188.5 C 154.167,189.167 151.833,189.833 149.5,190.5C 149.5,189.5 149.5,188.5 149.5,187.5C 152.059,187.198 154.393,187.532 156.5,188.5 Z"/></g>
<g><path style="opacity:0.035" fill="#f3ab7c" d="M 162.5,186.5 C 161.778,187.551 160.778,188.218 159.5,188.5C 159.975,186.278 160.975,185.611 162.5,186.5 Z"/></g>
<g><path style="opacity:0.075" fill="#f2a56f" d="M 264.5,186.5 C 264.56,185.957 264.893,185.624 265.5,185.5C 266.386,186.325 266.719,187.325 266.5,188.5C 265.833,187.833 265.167,187.167 264.5,186.5 Z"/></g>
<g><path style="opacity:0.075" fill="#f3aa79" d="M 409.5,188.5 C 408.5,188.167 407.833,187.5 407.5,186.5C 407.56,185.957 407.893,185.624 408.5,185.5C 409.386,186.325 409.719,187.325 409.5,188.5 Z"/></g>
<g><path style="opacity:0.522" fill="#f2a26a" d="M 357.5,185.5 C 358.833,185.5 360.167,185.5 361.5,185.5C 361.843,187.483 361.176,188.817 359.5,189.5C 360.833,186.833 360.167,186.167 357.5,187.5C 357.5,186.833 357.5,186.167 357.5,185.5 Z"/></g>
<g><path style="opacity:0.035" fill="#f2a672" d="M 134.5,188.5 C 137.113,187.007 139.113,187.674 140.5,190.5C 138.5,189.833 136.5,189.167 134.5,188.5 Z"/></g>
<g><path style="opacity:0.212" fill="#ef8940" d="M 294.5,186.5 C 292.417,187.973 290.084,189.14 287.5,190C 281.003,190.894 274.67,190.394 268.5,188.5C 269.097,187.861 269.93,187.528 271,187.5C 273.573,188.514 276.24,189.18 279,189.5C 283.342,188.304 287.842,187.471 292.5,187C 293.256,185.62 293.922,185.453 294.5,186.5 Z"/></g>
<g><path style="opacity:0.075" fill="#f2a977" d="M 355.5,193.5 C 355.5,194.167 355.5,194.833 355.5,195.5C 353.833,195.5 352.167,195.5 350.5,195.5C 352.028,194.691 353.694,194.024 355.5,193.5 Z"/></g>
<g><path style="opacity:0.075" fill="#f2a570" d="M 402.5,192.5 C 401.167,194.5 399.5,196.167 397.5,197.5C 397.833,194.5 399.5,192.833 402.5,192.5 Z"/></g>
<g><path style="opacity:0.075" fill="#f2ab7b" d="M 425.5,193.5 C 424.448,195.256 422.781,195.923 420.5,195.5C 422.028,194.691 423.694,194.024 425.5,193.5 Z"/></g>
<g><path style="opacity:0.129" fill="#f0914e" d="M 404.5,193.5 C 405.85,195.02 407.183,195.687 408.5,195.5C 408.5,196.167 408.5,196.833 408.5,197.5C 407.292,196.766 405.959,196.433 404.5,196.5C 404.5,195.5 404.5,194.5 404.5,193.5 Z"/></g>
<g><path style="opacity:0.353" fill="#f2a570" d="M 334.5,193.5 C 330.687,194.63 327.687,196.963 325.5,200.5C 324.893,200.376 324.56,200.043 324.5,199.5C 326.114,197.544 327.781,195.544 329.5,193.5C 331.299,192.212 332.965,192.212 334.5,193.5 Z"/></g>
<g><path style="opacity:0.075" fill="#f3ac7d" d="M 408.5,195.5 C 412.4,196.43 416.4,196.763 420.5,196.5C 416.702,197.483 412.702,197.817 408.5,197.5C 408.5,196.833 408.5,196.167 408.5,195.5 Z"/></g>
<g><path style="opacity:0.035" fill="#f2a671" d="M 448.5,190.5 C 448.833,190.5 449.167,190.5 449.5,190.5C 449.946,194.36 448.613,197.36 445.5,199.5C 446.213,196.407 447.213,193.407 448.5,190.5 Z"/></g>
<g><path style="opacity:0.522" fill="#f19452" d="M 334.5,193.5 C 335.951,195.015 337.618,195.848 339.5,196C 343.358,196.81 347.024,196.643 350.5,195.5C 352.167,195.5 353.833,195.5 355.5,195.5C 348.699,199.132 341.699,199.465 334.5,196.5C 334.5,195.5 334.5,194.5 334.5,193.5 Z"/></g>
<g><path style="opacity:0.278" fill="#f3a874" d="M 397.5,197.5 C 397.167,198.5 396.5,199.167 395.5,199.5C 395.5,198.167 396.167,197.5 397.5,197.5 Z"/></g>
<g><path style="opacity:0.165" fill="#f3ae7f" d="M 395.5,199.5 C 395.167,200.5 394.5,201.167 393.5,201.5C 393.5,200.167 394.167,199.5 395.5,199.5 Z"/></g>
<g><path style="opacity:0.035" fill="#f2a773" d="M 444.5,201.5 C 442.5,204.167 440.167,206.5 437.5,208.5C 438.833,205.167 441.167,202.833 444.5,201.5 Z"/></g>
<g><path style="opacity:0.075" fill="#f3aa78" d="M 372.5,202.5 C 372.5,203.833 371.833,204.5 370.5,204.5C 370.833,203.5 371.5,202.833 372.5,202.5 Z"/></g>
<g><path style="opacity:0.075" fill="#f3aa78" d="M 370.5,204.5 C 370.5,205.833 369.833,206.5 368.5,206.5C 368.833,205.5 369.5,204.833 370.5,204.5 Z"/></g>
<g><path style="opacity:0.353" fill="#f3aa78" d="M 393.5,201.5 C 392.167,203.167 392.167,204.833 393.5,206.5C 391.974,205.895 390.974,204.729 390.5,203C 391.244,201.961 392.244,201.461 393.5,201.5 Z"/></g>
<g><path style="opacity:0.57" fill="#ef863b" d="M 322.5,206.5 C 326.457,205.973 328.79,207.639 329.5,211.5C 326.75,210.369 324.417,208.703 322.5,206.5 Z"/></g>
<g><path style="opacity:0.035" fill="#f3aa7a" d="M 365.5,209.5 C 365.027,210.906 364.027,211.573 362.5,211.5C 362.973,210.094 363.973,209.427 365.5,209.5 Z"/></g>
<g><path style="opacity:0.212" fill="#f0904b" d="M 393.5,206.5 C 394.75,206.577 395.583,207.244 396,208.5C 397,208.167 398,207.833 399,207.5C 399.333,208.5 399.667,209.5 400,210.5C 400.333,210.167 400.667,209.833 401,209.5C 402.095,210.693 402.928,212.027 403.5,213.5C 400.544,212.022 397.544,210.522 394.5,209C 393.748,208.329 393.414,207.496 393.5,206.5 Z"/></g>
<g><path style="opacity:0.035" fill="#f3ab7a" d="M 435.5,209.5 C 435.179,211.048 434.179,211.715 432.5,211.5C 433.469,210.691 434.302,209.691 435,208.5C 435.399,208.728 435.565,209.062 435.5,209.5 Z"/></g>
<g><path style="opacity:0.035" fill="#f3ab7b" d="M 361.5,211.5 C 361.027,212.906 360.027,213.573 358.5,213.5C 358.973,212.094 359.973,211.427 361.5,211.5 Z"/></g>
<g><path style="opacity:0.129" fill="#ef8940" d="M 431.5,211.5 C 430.365,213.213 428.698,213.88 426.5,213.5C 426.5,213.167 426.5,212.833 426.5,212.5C 428.044,212.297 429.378,211.63 430.5,210.5C 431.107,210.624 431.44,210.957 431.5,211.5 Z"/></g>
<g><path style="opacity:0.075" fill="#f3aa79" d="M 338.5,214.5 C 337.209,214.737 336.209,214.404 335.5,213.5C 336.947,212.115 337.947,212.448 338.5,214.5 Z"/></g>
<g><path style="opacity:0.278" fill="#f2a56f" d="M 356.5,213.5 C 355.432,214.434 354.099,214.768 352.5,214.5C 353.538,212.481 354.872,212.147 356.5,213.5 Z"/></g>
<g><path style="opacity:0.075" fill="#f3ac7d" d="M 408.5,214.5 C 407.209,214.737 406.209,214.404 405.5,213.5C 406.779,212.285 407.779,212.618 408.5,214.5 Z"/></g>
<g><path style="opacity:0.165" fill="#f3ae7f" d="M 426.5,212.5 C 426.5,212.833 426.5,213.167 426.5,213.5C 425.791,214.404 424.791,214.737 423.5,214.5C 423.973,213.094 424.973,212.427 426.5,212.5 Z"/></g>
</svg>
