<?xml version="1.0" encoding="UTF-8"?>
<!DOCTYPE svg PUBLIC "-//W3C//DTD SVG 1.1//EN" "http://www.w3.org/Graphics/SVG/1.1/DTD/svg11.dtd">
<svg xmlns="http://www.w3.org/2000/svg" version="1.1" width="1200px" height="675px" style="shape-rendering:geometricPrecision; text-rendering:geometricPrecision; image-rendering:optimizeQuality; fill-rule:evenodd; clip-rule:evenodd" xmlns:xlink="http://www.w3.org/1999/xlink">
<g><path style="opacity:0.078" fill="#8e8ca8" d="M 93.5,227.5 C 92.1667,227.5 90.8333,227.5 89.5,227.5C 89.62,226.414 90.2867,225.747 91.5,225.5C 92.7133,225.747 93.38,226.414 93.5,227.5 Z"/></g>
<g><path style="opacity:0.031" fill="#a09fc0" d="M 223.5,227.5 C 222.833,227.5 222.167,227.5 221.5,227.5C 222.548,225.067 223.214,225.067 223.5,227.5 Z"/></g>
<g><path style="opacity:0.412" fill="#695dfb" d="M 89.5,227.5 C 90.8333,227.5 92.1667,227.5 93.5,227.5C 94.1667,227.5 94.5,227.833 94.5,228.5C 91.7938,228.575 89.1272,228.908 86.5,229.5C 87.2905,228.599 88.2905,227.932 89.5,227.5 Z"/></g>
<g><path style="opacity:0.784" fill="#6554f6" d="M 221.5,227.5 C 222.167,227.5 222.833,227.5 223.5,227.5C 224.492,227.328 225.158,227.662 225.5,228.5C 221.105,228.96 216.772,230.293 212.5,232.5C 215.013,230.074 218.013,228.408 221.5,227.5 Z"/></g>
<g><path style="opacity:1" fill="#2518fe" d="M 94.5,228.5 C 95.1667,228.5 95.5,228.833 95.5,229.5C 96.344,231.759 98.0107,232.759 100.5,232.5C 102.679,232.84 104.512,233.84 106,235.5C 106.5,271.498 106.667,307.498 106.5,343.5C 106.927,346.01 107.593,348.343 108.5,350.5C 109.451,351.919 109.784,353.585 109.5,355.5C 109.182,358.481 110.182,360.815 112.5,362.5C 114.858,365.546 116.858,368.879 118.5,372.5C 118.833,373.5 119.5,374.167 120.5,374.5C 123.874,377.51 127.208,380.51 130.5,383.5C 131.514,384.674 132.847,385.34 134.5,385.5C 135.71,385.932 136.71,386.599 137.5,387.5C 138.514,388.674 139.847,389.34 141.5,389.5C 142.167,389.5 142.833,389.5 143.5,389.5C 144.446,390.931 145.612,392.264 147,393.5C 149.674,392.699 152.341,393.032 155,394.5C 155.772,394.355 156.439,394.022 157,393.5C 157.352,391.753 157.852,390.086 158.5,388.5C 158.263,387.209 158.596,386.209 159.5,385.5C 160.612,383.401 161.279,381.067 161.5,378.5C 162.092,375.873 162.425,373.206 162.5,370.5C 162.5,369.833 162.5,369.167 162.5,368.5C 162.846,332.116 163.846,295.783 165.5,259.5C 167.489,256.834 170.156,255.167 173.5,254.5C 175.848,254.408 177.514,253.408 178.5,251.5C 178.833,251.5 179.167,251.5 179.5,251.5C 181.368,250.737 183.035,249.737 184.5,248.5C 187.237,247.783 189.57,246.45 191.5,244.5C 196.496,243.83 200.496,241.497 203.5,237.5C 205.179,237.715 206.179,237.048 206.5,235.5C 206.833,235.5 207.167,235.5 207.5,235.5C 209.674,235.25 211.341,234.25 212.5,232.5C 216.772,230.293 221.105,228.96 225.5,228.5C 227.745,229.096 229.745,230.096 231.5,231.5C 232.733,233.796 234.733,235.13 237.5,235.5C 237.667,269.835 237.5,304.168 237,338.5C 236.409,344.498 235.909,350.498 235.5,356.5C 234.326,357.514 233.66,358.847 233.5,360.5C 233.768,362.099 233.434,363.432 232.5,364.5C 229.873,366.452 228.54,369.119 228.5,372.5C 227.023,376.116 225.023,379.45 222.5,382.5C 220.5,382.5 219.5,383.5 219.5,385.5C 215.838,389.642 211.838,393.309 207.5,396.5C 204.911,396.461 202.911,397.461 201.5,399.5C 199.954,401.931 197.621,403.264 194.5,403.5C 192.632,404.263 190.965,405.263 189.5,406.5C 189.158,407.338 188.492,407.672 187.5,407.5C 186.29,407.932 185.29,408.599 184.5,409.5C 183.486,410.674 182.153,411.34 180.5,411.5C 179.29,411.932 178.29,412.599 177.5,413.5C 175.821,413.285 174.821,413.952 174.5,415.5C 172.847,415.66 171.514,416.326 170.5,417.5C 167.258,420.35 163.925,422.35 160.5,423.5C 155.288,424.517 150.955,426.85 147.5,430.5C 146.29,430.932 145.29,431.599 144.5,432.5C 143.167,433.5 141.833,434.5 140.5,435.5C 136.64,435.326 133.64,436.659 131.5,439.5C 128.746,440.946 125.746,441.946 122.5,442.5C 115.278,443.312 108.278,444.645 101.5,446.5C 99.1667,446.5 96.8333,446.5 94.5,446.5C 88.3407,444.928 82.0074,443.595 75.5,442.5C 72.9327,442.279 70.5994,441.612 68.5,440.5C 67.7095,439.599 66.7095,438.932 65.5,438.5C 64.209,438.737 63.209,438.404 62.5,437.5C 61.0351,436.263 59.3684,435.263 57.5,434.5C 54.7052,433.937 52.3718,432.604 50.5,430.5C 49.4613,428.469 47.7946,427.136 45.5,426.5C 43.1667,422.167 39.8333,418.833 35.5,416.5C 33.7484,414.754 32.4151,412.754 31.5,410.5C 30.5103,407.849 29.5103,405.183 28.5,402.5C 27.7348,401.388 26.7348,400.721 25.5,400.5C 24.5655,399.432 24.2322,398.099 24.5,396.5C 23.1428,392.465 21.8094,388.465 20.5,384.5C 19.7109,384.217 19.0442,383.717 18.5,383C 19.3366,381.989 19.67,380.822 19.5,379.5C 18.1796,342.537 18.1796,305.537 19.5,268.5C 20.5223,268.145 21.189,267.478 21.5,266.5C 23.8185,266.008 25.8185,265.008 27.5,263.5C 27.5,262.833 27.8333,262.5 28.5,262.5C 30.0269,262.573 31.0269,261.906 31.5,260.5C 33.9561,259.437 36.2895,258.104 38.5,256.5C 42.316,255.599 45.9827,254.099 49.5,252C 50.8228,251.184 51.4894,250.017 51.5,248.5C 52.8333,248.167 54.1667,247.833 55.5,247.5C 57.1898,247.144 58.1898,246.144 58.5,244.5C 59.8333,244.167 61.1667,243.833 62.5,243.5C 64.1898,243.144 65.1898,242.144 65.5,240.5C 67.153,240.34 68.4863,239.674 69.5,238.5C 71.1788,238.715 72.1788,238.048 72.5,236.5C 75.7301,234.684 79.0635,233.017 82.5,231.5C 84.0269,231.573 85.0269,230.906 85.5,229.5C 85.8333,229.5 86.1667,229.5 86.5,229.5C 89.1272,228.908 91.7938,228.575 94.5,228.5 Z M 89.5,336.5 C 90.6086,340.946 90.6086,345.112 89.5,349C 91.2322,352.531 92.5656,356.197 93.5,360C 93.1667,360.333 92.8333,360.667 92.5,361C 93.5791,362.859 94.9124,364.359 96.5,365.5C 96.5,365.833 96.5,366.167 96.5,366.5C 96.0618,366.435 95.7284,366.601 95.5,367C 96.8992,369.74 98.5659,372.24 100.5,374.5C 100.833,375.167 101.167,375.833 101.5,376.5C 101.5,378.5 102.5,379.5 104.5,379.5C 104.229,381.38 104.896,382.713 106.5,383.5C 107.5,383.833 108.167,384.5 108.5,385.5C 108.973,386.906 109.973,387.573 111.5,387.5C 112.473,390.135 114.14,392.135 116.5,393.5C 117.29,394.401 118.29,395.068 119.5,395.5C 119.833,395.5 120.167,395.5 120.5,395.5C 120.389,396.117 120.056,396.617 119.5,397C 121.628,397.655 123.628,398.489 125.5,399.5C 126.167,399.5 126.5,399.833 126.5,400.5C 127.29,401.401 128.29,402.068 129.5,402.5C 130.209,403.404 131.209,403.737 132.5,403.5C 136.092,405.739 140.092,407.073 144.5,407.5C 144.611,408.117 144.944,408.617 145.5,409C 142.636,411.366 139.969,413.866 137.5,416.5C 135.118,417.351 133.118,418.684 131.5,420.5C 128.455,421.279 125.789,422.613 123.5,424.5C 119.385,425.51 115.385,426.51 111.5,427.5C 111.158,428.338 110.492,428.672 109.5,428.5C 102.539,429.709 95.8728,429.709 89.5,428.5C 88.5,428.5 87.5,428.5 86.5,428.5C 82.7354,426.8 78.7354,425.467 74.5,424.5C 74.1667,424.5 73.8333,424.5 73.5,424.5C 71.5792,422.731 69.2459,421.397 66.5,420.5C 64.6644,418.412 62.3311,417.079 59.5,416.5C 59.5,415.167 58.8333,414.5 57.5,414.5C 57.5,413.833 57.1667,413.5 56.5,413.5C 55.139,411.401 53.639,409.401 52,407.5C 51.3292,406.748 50.4959,406.414 49.5,406.5C 48.7622,404.06 47.4288,402.06 45.5,400.5C 45.0679,399.29 44.4013,398.29 43.5,397.5C 42.9708,395.216 41.9708,393.216 40.5,391.5C 40.2413,388.728 39.2413,386.395 37.5,384.5C 37.5,384.167 37.5,383.833 37.5,383.5C 36.8629,380.544 36.3629,377.544 36,374.5C 35.8333,358.5 35.6667,342.5 35.5,326.5C 35.5285,309.683 36.1952,293.016 37.5,276.5C 37.8333,276.5 38.1667,276.5 38.5,276.5C 41.225,276.063 43.225,274.73 44.5,272.5C 47.4062,271.892 49.7396,270.559 51.5,268.5C 56.3199,266.947 60.6532,264.614 64.5,261.5C 66.8816,260.649 68.8816,259.316 70.5,257.5C 71.4916,257.672 72.1583,257.338 72.5,256.5C 75.5458,256.275 77.8791,254.942 79.5,252.5C 81.153,252.34 82.4863,251.674 83.5,250.5C 85.3863,249.639 87.2196,248.639 89,247.5C 89.5,277.165 89.6666,306.831 89.5,336.5 Z M 217.5,248.5 C 218.167,248.5 218.833,248.5 219.5,248.5C 219.89,278.581 220.224,308.915 220.5,339.5C 220.5,339.833 220.5,340.167 220.5,340.5C 220.567,341.959 220.234,343.292 219.5,344.5C 218.745,347.053 218.078,349.72 217.5,352.5C 217.5,352.833 217.5,353.167 217.5,353.5C 216.85,355.435 216.517,357.435 216.5,359.5C 215.094,359.973 214.427,360.973 214.5,362.5C 213.263,363.965 212.263,365.632 211.5,367.5C 210.094,367.973 209.427,368.973 209.5,370.5C 208.833,370.5 208.5,370.833 208.5,371.5C 207.094,371.973 206.427,372.973 206.5,374.5C 203.474,377.195 200.474,379.862 197.5,382.5C 195.632,383.263 193.965,384.263 192.5,385.5C 190.833,386.167 189.167,386.833 187.5,387.5C 186.29,387.932 185.29,388.599 184.5,389.5C 183.833,389.833 183.167,390.167 182.5,390.5C 180.409,390.318 178.409,390.652 176.5,391.5C 175.943,389.282 175.943,386.949 176.5,384.5C 177.906,384.027 178.573,383.027 178.5,381.5C 178.5,380.833 178.5,380.167 178.5,379.5C 179.43,375.6 179.763,371.6 179.5,367.5C 179.5,367.167 179.5,366.833 179.5,366.5C 179.333,334.832 179.5,303.165 180,271.5C 181.417,270.922 182.25,269.922 182.5,268.5C 186.03,268.412 189.03,266.745 191.5,263.5C 192.117,263.611 192.617,263.944 193,264.5C 194.627,263.468 195.793,262.134 196.5,260.5C 196.833,260.5 197.167,260.5 197.5,260.5C 199.565,260.047 201.232,259.047 202.5,257.5C 205.132,256.528 207.465,255.195 209.5,253.5C 210.71,253.068 211.71,252.401 212.5,251.5C 214.179,251.715 215.179,251.048 215.5,249.5C 216.492,249.672 217.158,249.338 217.5,248.5 Z"/></g>
<g><path style="opacity:0.137" fill="#877bea" d="M 85.5,229.5 C 85.0269,230.906 84.0269,231.573 82.5,231.5C 82.9731,230.094 83.9731,229.427 85.5,229.5 Z"/></g>
<g><path style="opacity:0.949" fill="#6d5bf9" d="M 95.5,229.5 C 97.6636,229.721 99.3303,230.721 100.5,232.5C 98.0107,232.759 96.344,231.759 95.5,229.5 Z"/></g>
<g><path style="opacity:0.137" fill="#796ce2" d="M 212.5,232.5 C 211.341,234.25 209.674,235.25 207.5,235.5C 208.659,233.75 210.326,232.75 212.5,232.5 Z"/></g>
<g><path style="opacity:0.137" fill="#8275e1" d="M 231.5,231.5 C 233.882,232.351 235.882,233.684 237.5,235.5C 234.733,235.13 232.733,233.796 231.5,231.5 Z"/></g>
<g><path style="opacity:0.412" fill="#867aef" d="M 206.5,235.5 C 206.179,237.048 205.179,237.715 203.5,237.5C 204.29,236.599 205.29,235.932 206.5,235.5 Z"/></g>
<g><path style="opacity:0.137" fill="#736afb" d="M 237.5,235.5 C 238.664,270.664 238.831,305.998 238,341.5C 237.704,346.728 236.871,351.728 235.5,356.5C 235.909,350.498 236.409,344.498 237,338.5C 237.5,304.168 237.667,269.835 237.5,235.5 Z"/></g>
<g><path style="opacity:0.243" fill="#9792ce" d="M 72.5,236.5 C 72.1788,238.048 71.1788,238.715 69.5,238.5C 70.2905,237.599 71.2905,236.932 72.5,236.5 Z"/></g>
<g><path style="opacity:0.243" fill="#9793d3" d="M 65.5,240.5 C 65.1898,242.144 64.1898,243.144 62.5,243.5C 62.8102,241.856 63.8102,240.856 65.5,240.5 Z"/></g>
<g><path style="opacity:0.863" fill="#5949fc" d="M 203.5,237.5 C 200.496,241.497 196.496,243.83 191.5,244.5C 195.164,241.665 199.164,239.332 203.5,237.5 Z"/></g>
<g><path style="opacity:0.243" fill="#9793d3" d="M 58.5,244.5 C 58.1898,246.144 57.1898,247.144 55.5,247.5C 55.8102,245.856 56.8102,244.856 58.5,244.5 Z"/></g>
<g><path style="opacity:0.784" fill="#453cff" d="M 89.5,246.5 C 89.56,245.957 89.8933,245.624 90.5,245.5C 91.4998,276.826 91.8332,308.16 91.5,339.5C 90.596,338.791 90.2627,337.791 90.5,336.5C 90.8314,306.329 90.4981,276.329 89.5,246.5 Z"/></g>
<g><path style="opacity:0.306" fill="#6158fd" d="M 89.5,246.5 C 90.4981,276.329 90.8314,306.329 90.5,336.5C 90.1667,336.5 89.8333,336.5 89.5,336.5C 89.6666,306.831 89.5,277.165 89,247.5C 87.2196,248.639 85.3863,249.639 83.5,250.5C 84.733,248.204 86.733,246.87 89.5,246.5 Z"/></g>
<g><path style="opacity:0.635" fill="#7062ef" d="M 191.5,244.5 C 189.57,246.45 187.237,247.783 184.5,248.5C 186.242,246.231 188.576,244.898 191.5,244.5 Z"/></g>
<g><path style="opacity:0.306" fill="#7365f3" d="M 220.5,339.5 C 220.224,308.915 219.89,278.581 219.5,248.5C 218.833,248.5 218.167,248.5 217.5,248.5C 218.287,246.896 219.62,246.229 221.5,246.5C 221.831,277.671 221.498,308.671 220.5,339.5 Z"/></g>
<g><path style="opacity:0.243" fill="#9a94e1" d="M 184.5,248.5 C 183.035,249.737 181.368,250.737 179.5,251.5C 180.3,249.259 181.966,248.259 184.5,248.5 Z"/></g>
<g><path style="opacity:0.031" fill="#938ae2" d="M 215.5,249.5 C 215.179,251.048 214.179,251.715 212.5,251.5C 212.973,250.094 213.973,249.427 215.5,249.5 Z"/></g>
<g><path style="opacity:0.412" fill="#7c72fa" d="M 212.5,251.5 C 211.71,252.401 210.71,253.068 209.5,253.5C 209.821,251.952 210.821,251.285 212.5,251.5 Z"/></g>
<g><path style="opacity:0.306" fill="#7666ec" d="M 178.5,251.5 C 177.514,253.408 175.848,254.408 173.5,254.5C 174.659,252.75 176.326,251.75 178.5,251.5 Z"/></g>
<g><path style="opacity:0.678" fill="#6b5af7" d="M 51.5,248.5 C 51.4894,250.017 50.8228,251.184 49.5,252C 45.9827,254.099 42.316,255.599 38.5,256.5C 42.7553,253.842 47.0887,251.176 51.5,248.5 Z"/></g>
<g><path style="opacity:0.137" fill="#7e74f4" d="M 79.5,252.5 C 77.8791,254.942 75.5458,256.275 72.5,256.5C 74.3356,254.412 76.6689,253.079 79.5,252.5 Z"/></g>
<g><path style="opacity:0.412" fill="#7d71f6" d="M 209.5,253.5 C 207.465,255.195 205.132,256.528 202.5,257.5C 204.046,255.069 206.379,253.736 209.5,253.5 Z"/></g>
<g><path style="opacity:0.137" fill="#7f73f1" d="M 202.5,257.5 C 201.232,259.047 199.565,260.047 197.5,260.5C 198.3,258.259 199.966,257.259 202.5,257.5 Z"/></g>
<g><path style="opacity:0.137" fill="#7c73f9" d="M 70.5,257.5 C 68.8816,259.316 66.8816,260.649 64.5,261.5C 65.733,259.204 67.733,257.87 70.5,257.5 Z"/></g>
<g><path style="opacity:0.243" fill="#9792ce" d="M 31.5,260.5 C 31.0269,261.906 30.0269,262.573 28.5,262.5C 28.9731,261.094 29.9731,260.427 31.5,260.5 Z"/></g>
<g><path style="opacity:0.635" fill="#5e55fe" d="M 165.5,259.5 C 163.846,295.783 162.846,332.116 162.5,368.5C 162.5,332.167 162.5,295.833 162.5,259.5C 163.5,259.5 164.5,259.5 165.5,259.5 Z"/></g>
<g><path style="opacity:0.137" fill="#8e84e6" d="M 196.5,260.5 C 195.793,262.134 194.627,263.468 193,264.5C 192.617,263.944 192.117,263.611 191.5,263.5C 192.659,261.75 194.326,260.75 196.5,260.5 Z"/></g>
<g><path style="opacity:0.137" fill="#7b70f5" d="M 64.5,261.5 C 60.6532,264.614 56.3199,266.947 51.5,268.5C 55.0987,264.924 59.432,262.59 64.5,261.5 Z"/></g>
<g><path style="opacity:0.306" fill="#8171de" d="M 27.5,263.5 C 25.8185,265.008 23.8185,266.008 21.5,266.5C 22.911,264.461 24.911,263.461 27.5,263.5 Z"/></g>
<g><path style="opacity:0.031" fill="#8e83e1" d="M 191.5,263.5 C 189.03,266.745 186.03,268.412 182.5,268.5C 185.142,266.278 188.142,264.611 191.5,263.5 Z"/></g>
<g><path style="opacity:0.243" fill="#908bd4" d="M 21.5,266.5 C 21.189,267.478 20.5223,268.145 19.5,268.5C 18.1796,305.537 18.1796,342.537 19.5,379.5C 18.8826,379.389 18.3826,379.056 18,378.5C 17.7931,374.911 17.2931,371.411 16.5,368C 16.349,335.373 16.5156,302.54 17,269.5C 17.9184,267.624 19.4184,266.624 21.5,266.5 Z"/></g>
<g><path style="opacity:0.137" fill="#7c72f1" d="M 51.5,268.5 C 49.7396,270.559 47.4062,271.892 44.5,272.5C 46.3495,270.428 48.6829,269.095 51.5,268.5 Z"/></g>
<g><path style="opacity:0.541" fill="#7a73fc" d="M 182.5,268.5 C 182.25,269.922 181.417,270.922 180,271.5C 179.5,303.165 179.333,334.832 179.5,366.5C 178.502,334.338 178.168,302.004 178.5,269.5C 179.959,269.567 181.292,269.234 182.5,268.5 Z"/></g>
<g><path style="opacity:0.137" fill="#8075f3" d="M 44.5,272.5 C 43.225,274.73 41.225,276.063 38.5,276.5C 39.775,274.27 41.775,272.937 44.5,272.5 Z"/></g>
<g><path style="opacity:0.137" fill="#766df9" d="M 37.5,276.5 C 36.1952,293.016 35.5285,309.683 35.5,326.5C 35.6667,342.5 35.8333,358.5 36,374.5C 36.3629,377.544 36.8629,380.544 37.5,383.5C 35.9328,382.319 35.0995,380.653 35,378.5C 34.3333,344.833 34.3333,311.167 35,277.5C 35.6708,276.748 36.5041,276.414 37.5,276.5 Z"/></g>
<g><path style="opacity:0.435" fill="#66656d" d="M 823.5,282.5 C 823.44,283.043 823.107,283.376 822.5,283.5C 816.26,281.027 809.76,280.027 803,280.5C 797.799,280.581 792.632,280.914 787.5,281.5C 787.918,280.778 788.584,280.278 789.5,280C 801.233,277.587 812.566,278.42 823.5,282.5 Z"/></g>
<g><path style="opacity:0.078" fill="#71707f" d="M 1051.5,282.5 C 1051.17,282.5 1050.83,282.5 1050.5,282.5C 1019.67,281.502 988.671,281.169 957.5,281.5C 988.482,279.507 1019.82,278.841 1051.5,279.5C 1051.5,280.5 1051.5,281.5 1051.5,282.5 Z"/></g>
<g><path style="opacity:0.078" fill="#71707e" d="M 1177.5,287.5 C 1177.39,285.097 1178.39,283.264 1180.5,282C 1173.89,280.943 1167.55,281.443 1161.5,283.5C 1161.33,282.178 1161.66,281.011 1162.5,280C 1169.16,279.5 1175.83,279.334 1182.5,279.5C 1181.66,282.676 1179.99,285.342 1177.5,287.5 Z"/></g>
<g><path style="opacity:0.435" fill="#555457" d="M 488.5,281.5 C 501.99,280.504 515.656,280.171 529.5,280.5C 536.263,281.023 542.93,282.19 549.5,284C 550.056,284.383 550.389,284.883 550.5,285.5C 543.886,284.144 537.219,282.978 530.5,282C 516.504,281.5 502.504,281.333 488.5,281.5 Z"/></g>
<g><path style="opacity:0.435" fill="#66656e" d="M 673.5,286.5 C 672.069,285.22 671.402,283.553 671.5,281.5C 666.125,281.172 660.792,281.505 655.5,282.5C 654.888,285.433 653.555,287.766 651.5,289.5C 652.152,286.074 653.485,282.908 655.5,280C 660.833,279.333 666.167,279.333 671.5,280C 672.669,282.007 673.335,284.173 673.5,286.5 Z"/></g>
<g><path style="opacity:0.995" fill="#121212" d="M 823.5,282.5 C 823.833,282.5 824.167,282.5 824.5,282.5C 826.206,284.536 828.539,285.536 831.5,285.5C 835.18,286.675 838.513,288.508 841.5,291C 842.305,292.972 843.639,294.472 845.5,295.5C 843.072,298.696 840.905,302.029 839,305.5C 837.915,306.293 836.748,306.96 835.5,307.5C 833.163,306.157 831.163,304.49 829.5,302.5C 827.66,300.331 825.326,298.998 822.5,298.5C 810.422,291.891 798.422,291.891 786.5,298.5C 779.88,301.793 774.546,306.459 770.5,312.5C 767.044,315.624 764.877,319.624 764,324.5C 761.103,339.644 764.103,353.311 773,365.5C 775.106,368.118 777.606,370.118 780.5,371.5C 784.033,372.374 787.366,373.707 790.5,375.5C 792.116,376.989 794.116,377.989 796.5,378.5C 804.005,379.855 811.338,379.189 818.5,376.5C 819.713,376.253 820.38,375.586 820.5,374.5C 826.786,371.195 832.786,367.529 838.5,363.5C 840.252,367.31 842.752,370.643 846,373.5C 846.483,374.448 846.649,375.448 846.5,376.5C 844.807,379.19 842.473,381.19 839.5,382.5C 836.005,384.412 832.338,386.079 828.5,387.5C 827.702,387.957 827.369,388.624 827.5,389.5C 823.761,391.102 819.761,392.102 815.5,392.5C 807.49,393.653 799.49,393.653 791.5,392.5C 788.762,392.149 786.096,391.482 783.5,390.5C 782.914,390.709 782.414,391.043 782,391.5C 776.225,388.095 770.725,384.428 765.5,380.5C 764.211,379.363 763.211,378.03 762.5,376.5C 758.846,370.995 755.346,365.328 752,359.5C 750.274,353.963 749.274,348.296 749,342.5C 748.617,341.944 748.117,341.611 747.5,341.5C 747.81,338.287 747.477,335.287 746.5,332.5C 746.5,332.167 746.5,331.833 746.5,331.5C 748.265,328.877 748.932,325.877 748.5,322.5C 749.117,322.389 749.617,322.056 750,321.5C 750.681,317.779 751.514,314.113 752.5,310.5C 753.818,305.204 756.651,300.87 761,297.5C 761.483,296.552 761.649,295.552 761.5,294.5C 766.647,290.878 771.981,287.378 777.5,284C 780.768,282.85 784.101,282.016 787.5,281.5C 792.632,280.914 797.799,280.581 803,280.5C 809.76,280.027 816.26,281.027 822.5,283.5C 823.107,283.376 823.44,283.043 823.5,282.5 Z"/></g>
<g><path style="opacity:0.435" fill="#606068" d="M 913.5,280.5 C 907.925,281.452 902.259,281.786 896.5,281.5C 898.915,280.186 901.748,279.519 905,279.5C 908.021,279.502 910.854,279.836 913.5,280.5 Z"/></g>
<g><path style="opacity:0.435" fill="#64646d" d="M 1102.5,286.5 C 1100.75,285.258 1099.08,283.758 1097.5,282C 1094.83,281.833 1092.17,281.667 1089.5,281.5C 1086.41,281.522 1083.74,282.188 1081.5,283.5C 1079.31,282.951 1078.65,281.785 1079.5,280C 1085.86,279.169 1092.19,279.336 1098.5,280.5C 1100.34,282.185 1101.67,284.185 1102.5,286.5 Z"/></g>
<g><path style="opacity:0.376" fill="#7f7e82" d="M 339.5,280.5 C 344.975,279.511 350.642,279.178 356.5,279.5C 356.204,305.192 356.537,330.859 357.5,356.5C 356.778,356.082 356.278,355.416 356,354.5C 355.5,330.169 355.333,305.836 355.5,281.5C 350.36,280.512 345.026,280.179 339.5,280.5 Z"/></g>
<g><path style="opacity:0.998" fill="#0c0c0c" d="M 355.5,281.5 C 355.333,305.836 355.5,330.169 356,354.5C 356.278,355.416 356.778,356.082 357.5,356.5C 359.208,365.393 364.208,371.893 372.5,376C 379.803,379.216 387.47,380.216 395.5,379C 398.311,378.017 400.977,376.851 403.5,375.5C 403.842,374.662 404.508,374.328 405.5,374.5C 407.826,373.855 409.493,372.522 410.5,370.5C 413.5,369.5 415.5,367.5 416.5,364.5C 418.988,361.233 420.821,357.566 422,353.5C 422.5,329.502 422.667,305.502 422.5,281.5C 427.167,281.5 431.833,281.5 436.5,281.5C 436.523,307.625 436.523,333.959 436.5,360.5C 434.276,363.807 432.609,367.473 431.5,371.5C 431.291,372.922 430.791,374.255 430,375.5C 427.584,378.088 425.084,380.422 422.5,382.5C 419.708,382.622 417.708,383.956 416.5,386.5C 412.111,388.603 407.445,390.103 402.5,391C 401.944,391.383 401.611,391.883 401.5,392.5C 401.167,392.5 400.833,392.5 400.5,392.5C 392.495,393.739 384.495,393.739 376.5,392.5C 372.407,392.745 368.574,391.412 365,388.5C 364.667,388.833 364.333,389.167 364,389.5C 361.156,387.841 358.656,385.841 356.5,383.5C 356.027,382.094 355.027,381.427 353.5,381.5C 352.833,378.833 351.167,377.167 348.5,376.5C 348.167,375.833 347.833,375.167 347.5,374.5C 347.068,373.29 346.401,372.29 345.5,371.5C 344.263,370.035 343.263,368.368 342.5,366.5C 340.632,338.216 339.965,309.883 340.5,281.5C 345.5,281.5 350.5,281.5 355.5,281.5 Z"/></g>
<g><path style="opacity:0.997" fill="#0c0c0c" d="M 488.5,281.5 C 502.504,281.333 516.504,281.5 530.5,282C 537.219,282.978 543.886,284.144 550.5,285.5C 551.609,285.557 552.609,285.89 553.5,286.5C 555.034,288.369 557.034,289.702 559.5,290.5C 561.573,291.3 563.24,292.633 564.5,294.5C 566.094,297.764 568.427,300.431 571.5,302.5C 571.725,305.546 573.058,307.879 575.5,309.5C 576.404,310.209 576.737,311.209 576.5,312.5C 579.699,326.674 580.366,341.007 578.5,355.5C 576.234,358.262 574.901,361.595 574.5,365.5C 572.27,366.775 570.937,368.775 570.5,371.5C 570.5,372.167 570.167,372.5 569.5,372.5C 566.833,374.5 564.5,376.833 562.5,379.5C 562.5,380.167 562.167,380.5 561.5,380.5C 553.926,384.779 546.259,388.446 538.5,391.5C 538.167,391.5 537.833,391.5 537.5,391.5C 536.378,390.844 535.045,390.511 533.5,390.5C 531.667,390.585 530.334,391.252 529.5,392.5C 515.833,392.5 502.167,392.5 488.5,392.5C 488.5,355.5 488.5,318.5 488.5,281.5 Z M 548.5,302.5 C 550.123,305.491 552.457,307.824 555.5,309.5C 555.833,310.5 556.5,311.167 557.5,311.5C 558.796,314.771 560.129,318.105 561.5,321.5C 560.935,323.747 561.601,325.747 563.5,327.5C 565.208,339.83 562.874,351.163 556.5,361.5C 556.5,361.833 556.5,362.167 556.5,362.5C 554.413,363.585 553.08,365.251 552.5,367.5C 550.368,367.554 549.035,368.554 548.5,370.5C 544.069,371.733 539.736,373.233 535.5,375C 525.2,376.181 514.867,376.681 504.5,376.5C 504.5,350.167 504.5,323.833 504.5,297.5C 511.09,297.811 517.59,297.478 524,296.5C 527.745,297.297 531.579,297.797 535.5,298C 540.07,299.052 544.403,300.552 548.5,302.5 Z"/></g>
<g><path style="opacity:0.997" fill="#0a0a0a" d="M 957.5,281.5 C 988.671,281.169 1019.67,281.502 1050.5,282.5C 1050.5,286.5 1050.5,290.5 1050.5,294.5C 1037.83,294.5 1025.17,294.5 1012.5,294.5C 1011.52,327.136 1011.19,359.802 1011.5,392.5C 1006.83,392.5 1002.17,392.5 997.5,392.5C 997.667,360.165 997.5,327.832 997,295.5C 983.913,294.511 970.746,294.177 957.5,294.5C 957.5,290.167 957.5,285.833 957.5,281.5 Z"/></g>
<g><path style="opacity:0.376" fill="#818186" d="M 529.5,280.5 C 515.656,280.171 501.99,280.504 488.5,281.5C 488.5,318.5 488.5,355.5 488.5,392.5C 487.501,355.573 487.167,317.906 487.5,279.5C 501.677,279.171 515.677,279.504 529.5,280.5 Z"/></g>
<g><path style="opacity:0.989" fill="#0c0c0c" d="M 913.5,280.5 C 912.519,317.803 912.185,355.136 912.5,392.5C 907.167,392.5 901.833,392.5 896.5,392.5C 896.5,355.5 896.5,318.5 896.5,281.5C 902.259,281.786 907.925,281.452 913.5,280.5 Z"/></g>
<g><path style="opacity:0.549" fill="#5b5b64" d="M 438.5,280.5 C 437.833,280.833 437.167,281.167 436.5,281.5C 431.833,281.5 427.167,281.5 422.5,281.5C 422.667,305.502 422.5,329.502 422,353.5C 420.821,357.566 418.988,361.233 416.5,364.5C 417.562,361.484 418.729,358.484 420,355.5C 420.333,330.5 420.667,305.5 421,280.5C 426.932,279.175 432.766,279.175 438.5,280.5 Z"/></g>
<g><path style="opacity:0.776" fill="#222222" d="M 438.5,280.5 C 438.667,304.502 438.5,328.502 438,352.5C 437.817,355.365 437.317,358.031 436.5,360.5C 436.523,333.959 436.523,307.625 436.5,281.5C 437.167,281.167 437.833,280.833 438.5,280.5 Z"/></g>
<g><path style="opacity:0.996" fill="#0e0e0e" d="M 673.5,286.5 C 673.541,290.236 674.874,293.236 677.5,295.5C 677.5,295.833 677.5,296.167 677.5,296.5C 676.957,296.56 676.624,296.893 676.5,297.5C 677.843,299.904 679.177,302.238 680.5,304.5C 681.338,304.842 681.672,305.508 681.5,306.5C 681.707,309.241 682.707,311.574 684.5,313.5C 685.404,314.209 685.737,315.209 685.5,316.5C 686.738,321.895 688.738,326.895 691.5,331.5C 692.931,332.78 693.598,334.447 693.5,336.5C 695.78,343.933 698.28,351.266 701,358.5C 702.03,360.346 703.196,362.013 704.5,363.5C 704.707,366.241 705.707,368.574 707.5,370.5C 708.167,371.833 708.833,373.167 709.5,374.5C 709.179,377.577 710.179,379.91 712.5,381.5C 712.5,382.167 712.5,382.833 712.5,383.5C 713.167,386.167 713.833,388.833 714.5,391.5C 709.167,391.5 703.833,391.5 698.5,391.5C 696.619,385.403 694.452,379.403 692,373.5C 690.581,371.007 689.081,368.674 687.5,366.5C 687.5,365.833 687.5,365.167 687.5,364.5C 687.271,360.36 685.104,358.36 681,358.5C 679.014,358.569 677.514,359.235 676.5,360.5C 672.779,360.911 669.112,361.578 665.5,362.5C 662.302,361.964 659.635,362.631 657.5,364.5C 654.518,364.963 651.518,365.296 648.5,365.5C 645.998,365.749 643.498,366.083 641,366.5C 639.319,366.608 638.152,367.275 637.5,368.5C 635.736,374.473 633.403,380.14 630.5,385.5C 629.172,387.793 627.839,390.127 626.5,392.5C 621.5,392.5 616.5,392.5 611.5,392.5C 611.954,388.634 613.288,385.134 615.5,382C 614.944,381.617 614.611,381.117 614.5,380.5C 618.324,375.954 620.657,370.62 621.5,364.5C 621.328,363.508 621.662,362.842 622.5,362.5C 625.986,357.056 628.32,351.056 629.5,344.5C 631.065,342.491 632.065,340.157 632.5,337.5C 634.216,330.331 636.883,323.664 640.5,317.5C 643.179,314.784 644.512,311.45 644.5,307.5C 644.5,307.167 644.5,306.833 644.5,306.5C 646.517,304.219 648.184,301.553 649.5,298.5C 649.376,297.893 649.043,297.56 648.5,297.5C 648.5,297.167 648.5,296.833 648.5,296.5C 650.536,294.794 651.536,292.461 651.5,289.5C 653.555,287.766 654.888,285.433 655.5,282.5C 660.792,281.505 666.125,281.172 671.5,281.5C 671.402,283.553 672.069,285.22 673.5,286.5 Z M 662.5,308.5 C 663.167,308.833 663.833,309.167 664.5,309.5C 664.552,312.346 665.552,314.68 667.5,316.5C 667.711,320.182 669.044,323.182 671.5,325.5C 671.5,325.833 671.5,326.167 671.5,326.5C 671.866,328.905 672.533,331.238 673.5,333.5C 673.747,334.713 674.414,335.38 675.5,335.5C 675.5,335.833 675.5,336.167 675.5,336.5C 675.421,337.93 675.754,339.264 676.5,340.5C 675.23,341.288 674.23,342.288 673.5,343.5C 670.455,343.508 667.455,343.841 664.5,344.5C 660.989,344.899 657.656,345.566 654.5,346.5C 653.609,347.11 652.609,347.443 651.5,347.5C 649.774,347.815 648.107,347.981 646.5,348C 649.267,341.862 651.934,335.696 654.5,329.5C 654.5,329.167 654.5,328.833 654.5,328.5C 656.785,325.665 658.118,322.332 658.5,318.5C 660.655,316.383 661.655,313.716 661.5,310.5C 662.338,310.158 662.672,309.492 662.5,308.5 Z"/></g>
<g><path style="opacity:0.031" fill="#757481" d="M 824.5,282.5 C 827.272,282.759 829.605,283.759 831.5,285.5C 828.539,285.536 826.206,284.536 824.5,282.5 Z"/></g>
<g><path style="opacity:0.788" fill="#48474f" d="M 913.5,280.5 C 914.167,298.997 914.5,317.664 914.5,336.5C 914.5,355.512 913.833,374.179 912.5,392.5C 912.185,355.136 912.519,317.803 913.5,280.5 Z"/></g>
<g><path style="opacity:0.996" fill="#151516" d="M 1102.5,286.5 C 1109.34,295.516 1115.67,304.849 1121.5,314.5C 1122.34,316.853 1123.67,318.853 1125.5,320.5C 1127.38,321.382 1128.72,322.882 1129.5,325C 1130.17,325.667 1130.83,325.667 1131.5,325C 1139.37,312.991 1147.71,301.491 1156.5,290.5C 1158.89,288.733 1160.56,286.4 1161.5,283.5C 1167.55,281.443 1173.89,280.943 1180.5,282C 1178.39,283.264 1177.39,285.097 1177.5,287.5C 1176.92,289.411 1175.92,291.078 1174.5,292.5C 1173.09,292.973 1172.43,293.973 1172.5,295.5C 1170.51,299.799 1167.84,303.466 1164.5,306.5C 1162.41,308.336 1161.08,310.669 1160.5,313.5C 1159.88,315.754 1158.54,317.421 1156.5,318.5C 1154.68,320.118 1153.35,322.118 1152.5,324.5C 1152.25,326.674 1151.25,328.341 1149.5,329.5C 1147.13,331.198 1145.47,333.531 1144.5,336.5C 1143.78,339.598 1142.28,342.264 1140,344.5C 1139.5,360.497 1139.33,376.497 1139.5,392.5C 1133.5,392.5 1127.5,392.5 1121.5,392.5C 1121.18,376.589 1121.51,360.756 1122.5,345C 1120.88,343.908 1119.88,342.408 1119.5,340.5C 1118.94,337.284 1117.27,334.951 1114.5,333.5C 1113.83,330.151 1112.16,327.484 1109.5,325.5C 1108.28,321.951 1106.28,318.951 1103.5,316.5C 1102.74,314.632 1101.74,312.965 1100.5,311.5C 1099.83,311.167 1099.17,310.833 1098.5,310.5C 1094.5,304.163 1090.5,297.829 1086.5,291.5C 1085.62,288.296 1083.95,285.629 1081.5,283.5C 1083.74,282.188 1086.41,281.522 1089.5,281.5C 1092.17,281.667 1094.83,281.833 1097.5,282C 1099.08,283.758 1100.75,285.258 1102.5,286.5 Z"/></g>
<g><path style="opacity:0.725" fill="#575660" d="M 339.5,280.5 C 345.026,280.179 350.36,280.512 355.5,281.5C 350.5,281.5 345.5,281.5 340.5,281.5C 339.965,309.883 340.632,338.216 342.5,366.5C 340.48,361.245 339.147,355.745 338.5,350C 338.184,326.691 338.518,303.524 339.5,280.5 Z"/></g>
<g><path style="opacity:0.239" fill="#6e6d76" d="M 1081.5,283.5 C 1083.95,285.629 1085.62,288.296 1086.5,291.5C 1084.01,289.342 1082.34,286.676 1081.5,283.5 Z"/></g>
<g><path style="opacity:0.239" fill="#6a6a70" d="M 1161.5,283.5 C 1160.56,286.4 1158.89,288.733 1156.5,290.5C 1157.46,287.561 1159.12,285.228 1161.5,283.5 Z"/></g>
<g><path style="opacity:0.078" fill="#747480" d="M 553.5,286.5 C 556.147,286.929 558.147,288.262 559.5,290.5C 557.034,289.702 555.034,288.369 553.5,286.5 Z"/></g>
<g><path style="opacity:0.643" fill="#686771" d="M 673.5,286.5 C 675.592,289.088 676.925,292.088 677.5,295.5C 674.874,293.236 673.541,290.236 673.5,286.5 Z"/></g>
<g><path style="opacity:0.031" fill="#9594a8" d="M 1174.5,292.5 C 1174.57,294.027 1173.91,295.027 1172.5,295.5C 1172.43,293.973 1173.09,292.973 1174.5,292.5 Z"/></g>
<g><path style="opacity:0.549" fill="#5e5d65" d="M 822.5,298.5 C 816.062,297.027 809.562,296.027 803,295.5C 800.167,295.667 797.333,295.833 794.5,296C 792.007,297.269 789.34,298.102 786.5,298.5C 798.422,291.891 810.422,291.891 822.5,298.5 Z"/></g>
<g><path style="opacity:0.643" fill="#525253" d="M 957.5,294.5 C 970.746,294.177 983.913,294.511 997,295.5C 997.5,327.832 997.667,360.165 997.5,392.5C 995.507,360.517 994.841,328.184 995.5,295.5C 983.116,295.187 970.783,295.52 958.5,296.5C 957.702,296.043 957.369,295.376 957.5,294.5 Z"/></g>
<g><path style="opacity:0.549" fill="#67676c" d="M 651.5,289.5 C 651.536,292.461 650.536,294.794 648.5,296.5C 649.055,293.904 650.055,291.571 651.5,289.5 Z"/></g>
<g><path style="opacity:0.239" fill="#4e4e4f" d="M 1050.5,282.5 C 1050.83,282.5 1051.17,282.5 1051.5,282.5C 1051.5,286.833 1051.5,291.167 1051.5,295.5C 1038.83,295.5 1026.17,295.5 1013.5,295.5C 1014.16,328.184 1013.49,360.517 1011.5,392.5C 1011.19,359.802 1011.52,327.136 1012.5,294.5C 1025.17,294.5 1037.83,294.5 1050.5,294.5C 1050.5,290.5 1050.5,286.5 1050.5,282.5 Z"/></g>
<g><path style="opacity:0.031" fill="#8c89ac" d="M 548.5,302.5 C 544.403,300.552 540.07,299.052 535.5,298C 531.579,297.797 527.745,297.297 524,296.5C 517.59,297.478 511.09,297.811 504.5,297.5C 508.107,296.176 512.107,295.509 516.5,295.5C 525.475,295.368 534.308,296.368 543,298.5C 545.026,299.735 546.86,301.068 548.5,302.5 Z"/></g>
<g><path style="opacity:0.157" fill="#7a7983" d="M 564.5,294.5 C 567.543,296.543 569.876,299.21 571.5,302.5C 568.427,300.431 566.094,297.764 564.5,294.5 Z"/></g>
<g><path style="opacity:0.435" fill="#66666c" d="M 677.5,296.5 C 679.606,298.719 680.606,301.385 680.5,304.5C 679.177,302.238 677.843,299.904 676.5,297.5C 676.624,296.893 676.957,296.56 677.5,296.5 Z"/></g>
<g><path style="opacity:0.435" fill="#616067" d="M 648.5,297.5 C 649.043,297.56 649.376,297.893 649.5,298.5C 648.184,301.553 646.517,304.219 644.5,306.5C 645.066,303.127 646.399,300.127 648.5,297.5 Z"/></g>
<g><path style="opacity:0.157" fill="#6d6d74" d="M 822.5,298.5 C 825.326,298.998 827.66,300.331 829.5,302.5C 827.321,302.16 825.488,301.16 824,299.5C 822.893,300.712 822.393,300.379 822.5,298.5 Z"/></g>
<g><path style="opacity:0.078" fill="#86849a" d="M 548.5,302.5 C 551.833,303.833 554.167,306.167 555.5,309.5C 552.457,307.824 550.123,305.491 548.5,302.5 Z"/></g>
<g><path style="opacity:0.435" fill="#67676c" d="M 571.5,302.5 C 573.199,304.566 574.532,306.9 575.5,309.5C 573.058,307.879 571.725,305.546 571.5,302.5 Z"/></g>
<g><path style="opacity:0.031" fill="#948bda" d="M 664.5,309.5 C 663.833,309.167 663.167,308.833 662.5,308.5C 663.301,306.207 663.968,306.54 664.5,309.5 Z"/></g>
<g><path style="opacity:0.031" fill="#828192" d="M 681.5,306.5 C 683.448,308.32 684.448,310.654 684.5,313.5C 682.707,311.574 681.707,309.241 681.5,306.5 Z"/></g>
<g><path style="opacity:0.239" fill="#73727c" d="M 1164.5,306.5 C 1163.92,309.331 1162.59,311.664 1160.5,313.5C 1161.08,310.669 1162.41,308.336 1164.5,306.5 Z"/></g>
<g><path style="opacity:0.157" fill="#87859d" d="M 664.5,309.5 C 666.241,311.395 667.241,313.728 667.5,316.5C 665.552,314.68 664.552,312.346 664.5,309.5 Z"/></g>
<g><path style="opacity:0.031" fill="#a09fc0" d="M 1098.5,310.5 C 1097.83,311.167 1097.83,311.167 1098.5,310.5 Z"/></g>
<g><path style="opacity:0.435" fill="#727182" d="M 661.5,310.5 C 661.655,313.716 660.655,316.383 658.5,318.5C 659.06,316.199 659.56,313.866 660,311.5C 660.383,310.944 660.883,310.611 661.5,310.5 Z"/></g>
<g><path style="opacity:0.239" fill="#5c5c61" d="M 644.5,307.5 C 644.512,311.45 643.179,314.784 640.5,317.5C 641.267,313.851 642.6,310.518 644.5,307.5 Z"/></g>
<g><path style="opacity:0.078" fill="#888799" d="M 1100.5,311.5 C 1101.74,312.965 1102.74,314.632 1103.5,316.5C 1100.92,315.952 1099.92,314.285 1100.5,311.5 Z"/></g>
<g><path style="opacity:0.157" fill="#797884" d="M 1103.5,316.5 C 1106.28,318.951 1108.28,321.951 1109.5,325.5C 1107.45,323.763 1105.62,321.763 1104,319.5C 1103.52,318.552 1103.35,317.552 1103.5,316.5 Z"/></g>
<g><path style="opacity:0.643" fill="#565659" d="M 752.5,310.5 C 751.514,314.113 750.681,317.779 750,321.5C 749.617,322.056 749.117,322.389 748.5,322.5C 748.933,319.834 749.433,317.168 750,314.5C 750.2,312.68 751.034,311.347 752.5,310.5 Z"/></g>
<g><path style="opacity:0.239" fill="#6a6a71" d="M 1121.5,314.5 C 1123.82,315.802 1125.16,317.802 1125.5,320.5C 1123.67,318.853 1122.34,316.853 1121.5,314.5 Z"/></g>
<g><path style="opacity:0.031" fill="#8c89a7" d="M 667.5,316.5 C 669.592,319.088 670.925,322.088 671.5,325.5C 669.044,323.182 667.711,320.182 667.5,316.5 Z"/></g>
<g><path style="opacity:0.078" fill="#828099" d="M 557.5,311.5 C 560.201,314.235 561.868,317.569 562.5,321.5C 562.833,323.5 563.167,325.5 563.5,327.5C 561.601,325.747 560.935,323.747 561.5,321.5C 560.129,318.105 558.796,314.771 557.5,311.5 Z"/></g>
<g><path style="opacity:0.031" fill="#828091" d="M 1156.5,318.5 C 1156.13,321.267 1154.8,323.267 1152.5,324.5C 1153.35,322.118 1154.68,320.118 1156.5,318.5 Z"/></g>
<g><path style="opacity:0.031" fill="#8a889d" d="M 658.5,318.5 C 658.118,322.332 656.785,325.665 654.5,328.5C 654.901,324.595 656.234,321.262 658.5,318.5 Z"/></g>
<g><path style="opacity:0.239" fill="#72717b" d="M 685.5,316.5 C 686.117,316.611 686.617,316.944 687,317.5C 688.628,322.215 690.128,326.882 691.5,331.5C 688.738,326.895 686.738,321.895 685.5,316.5 Z"/></g>
<g><path style="opacity:0.643" fill="#4f4e52" d="M 562.5,321.5 C 563.117,321.611 563.617,321.944 564,322.5C 566.346,333.359 565.679,344.026 562,354.5C 560.609,357.336 558.776,359.669 556.5,361.5C 562.874,351.163 565.208,339.83 563.5,327.5C 563.167,325.5 562.833,323.5 562.5,321.5 Z"/></g>
<g><path style="opacity:0.078" fill="#807f8f" d="M 748.5,322.5 C 748.932,325.877 748.265,328.877 746.5,331.5C 746.215,328.171 746.882,325.171 748.5,322.5 Z"/></g>
<g><path style="opacity:0.078" fill="#828194" d="M 1109.5,325.5 C 1112.16,327.484 1113.83,330.151 1114.5,333.5C 1113.62,333.631 1112.96,333.298 1112.5,332.5C 1111.29,330.206 1110.29,327.873 1109.5,325.5 Z"/></g>
<g><path style="opacity:0.549" fill="#636367" d="M 576.5,312.5 C 577.558,313.6 578.392,314.934 579,316.5C 582.279,329.418 582.112,342.418 578.5,355.5C 580.366,341.007 579.699,326.674 576.5,312.5 Z"/></g>
<g><path style="opacity:0.078" fill="#84819b" d="M 671.5,326.5 C 673.584,329.053 674.917,332.053 675.5,335.5C 674.414,335.38 673.747,334.713 673.5,333.5C 672.533,331.238 671.866,328.905 671.5,326.5 Z"/></g>
<g><path style="opacity:0.239" fill="#767583" d="M 1114.5,333.5 C 1117.27,334.951 1118.94,337.284 1119.5,340.5C 1117.52,338.498 1115.85,336.165 1114.5,333.5 Z"/></g>
<g><path style="opacity:0.031" fill="#787785" d="M 1149.5,329.5 C 1148.53,332.469 1146.87,334.802 1144.5,336.5C 1145.47,333.531 1147.13,331.198 1149.5,329.5 Z"/></g>
<g><path style="opacity:0.157" fill="#8a889c" d="M 746.5,332.5 C 747.477,335.287 747.81,338.287 747.5,341.5C 747.5,342.833 747.5,344.167 747.5,345.5C 746.766,344.122 746.099,342.622 745.5,341C 745.665,338.069 745.999,335.236 746.5,332.5 Z"/></g>
<g><path style="opacity:0.541" fill="#877de8" d="M 89.5,336.5 C 89.8333,336.5 90.1667,336.5 90.5,336.5C 90.2627,337.791 90.596,338.791 91.5,339.5C 91.335,342.85 91.5017,346.183 92,349.5C 92.8494,355.05 94.6828,360.217 97.5,365C 97.2716,365.399 96.9382,365.565 96.5,365.5C 94.9124,364.359 93.5791,362.859 92.5,361C 92.8333,360.667 93.1667,360.333 93.5,360C 92.5656,356.197 91.2322,352.531 89.5,349C 90.6086,345.112 90.6086,340.946 89.5,336.5 Z"/></g>
<g><path style="opacity:0.157" fill="#808085" d="M 632.5,337.5 C 632.065,340.157 631.065,342.491 629.5,344.5C 629.552,341.654 630.552,339.32 632.5,337.5 Z"/></g>
<g><path style="opacity:0.031" fill="#8684a0" d="M 675.5,336.5 C 677.216,337.574 678.216,339.241 678.5,341.5C 677.332,343.217 675.665,343.884 673.5,343.5C 674.23,342.288 675.23,341.288 676.5,340.5C 675.754,339.264 675.421,337.93 675.5,336.5 Z"/></g>
<g><path style="opacity:0.157" fill="#797882" d="M 654.5,329.5 C 651.934,335.696 649.267,341.862 646.5,348C 648.107,347.981 649.774,347.815 651.5,347.5C 649.898,349.074 647.898,349.741 645.5,349.5C 647.081,345.26 648.581,340.927 650,336.5C 651.054,333.686 652.554,331.353 654.5,329.5 Z"/></g>
<g><path style="opacity:0.031" fill="#9996c6" d="M 106.5,343.5 C 107.117,343.611 107.617,343.944 108,344.5C 108.495,346.473 108.662,348.473 108.5,350.5C 107.593,348.343 106.927,346.01 106.5,343.5 Z"/></g>
<g><path style="opacity:0.031" fill="#9a98bf" d="M 219.5,344.5 C 219.5,345.833 219.5,347.167 219.5,348.5C 219.843,350.483 219.176,351.817 217.5,352.5C 218.078,349.72 218.745,347.053 219.5,344.5 Z"/></g>
<g><path style="opacity:0.243" fill="#867cf6" d="M 220.5,340.5 C 221.746,343.293 221.413,345.96 219.5,348.5C 219.5,347.167 219.5,345.833 219.5,344.5C 220.234,343.292 220.567,341.959 220.5,340.5 Z"/></g>
<g><path style="opacity:0.078" fill="#838197" d="M 664.5,344.5 C 661.739,346.167 658.572,347.167 655,347.5C 654.601,347.272 654.435,346.938 654.5,346.5C 657.656,345.566 660.989,344.899 664.5,344.5 Z"/></g>
<g><path style="opacity:0.435" fill="#6a6970" d="M 629.5,344.5 C 628.32,351.056 625.986,357.056 622.5,362.5C 622.389,361.883 622.056,361.383 621.5,361C 624.397,355.482 627.063,349.982 629.5,344.5 Z"/></g>
<g><path style="opacity:0.243" fill="#8c85e8" d="M 217.5,353.5 C 218.484,355.598 218.151,357.598 216.5,359.5C 216.517,357.435 216.85,355.435 217.5,353.5 Z"/></g>
<g><path style="opacity:0.78" fill="#5f5f65" d="M 693.5,336.5 C 698.118,345 701.785,354 704.5,363.5C 703.196,362.013 702.03,360.346 701,358.5C 698.28,351.266 695.78,343.933 693.5,336.5 Z"/></g>
<g><path style="opacity:0.137" fill="#8579e4" d="M 235.5,356.5 C 235.771,358.38 235.104,359.713 233.5,360.5C 233.66,358.847 234.326,357.514 235.5,356.5 Z"/></g>
<g><path style="opacity:0.078" fill="#81808f" d="M 687.5,364.5 C 686.035,363.594 685.035,362.261 684.5,360.5C 681.844,359.386 679.177,359.386 676.5,360.5C 677.514,359.235 679.014,358.569 681,358.5C 685.104,358.36 687.271,360.36 687.5,364.5 Z"/></g>
<g><path style="opacity:0.239" fill="#6d6d75" d="M 770.5,312.5 C 759.779,334.66 763.112,354.327 780.5,371.5C 777.606,370.118 775.106,368.118 773,365.5C 764.103,353.311 761.103,339.644 764,324.5C 764.877,319.624 767.044,315.624 770.5,312.5 Z"/></g>
<g><path style="opacity:0.239" fill="#67676d" d="M 578.5,355.5 C 577.738,359.133 576.404,362.466 574.5,365.5C 574.901,361.595 576.234,358.262 578.5,355.5 Z"/></g>
<g><path style="opacity:0.306" fill="#6e5ff3" d="M 109.5,355.5 C 110.912,357.604 111.912,359.937 112.5,362.5C 110.182,360.815 109.182,358.481 109.5,355.5 Z"/></g>
<g><path style="opacity:0.137" fill="#786de7" d="M 216.5,359.5 C 216.573,361.027 215.906,362.027 214.5,362.5C 214.427,360.973 215.094,359.973 216.5,359.5 Z"/></g>
<g><path style="opacity:0.239" fill="#686770" d="M 747.5,341.5 C 748.117,341.611 748.617,341.944 749,342.5C 749.274,348.296 750.274,353.963 752,359.5C 755.346,365.328 758.846,370.995 762.5,376.5C 761.206,375.71 760.039,374.71 759,373.5C 755.833,368.659 752.666,363.825 749.5,359C 750.275,356.096 749.608,353.43 747.5,351C 747.351,349.184 747.351,347.351 747.5,345.5C 747.5,344.167 747.5,342.833 747.5,341.5 Z"/></g>
<g><path style="opacity:0.376" fill="#767578" d="M 665.5,362.5 C 662.947,363.255 660.28,363.922 657.5,364.5C 659.635,362.631 662.302,361.964 665.5,362.5 Z"/></g>
<g><path style="opacity:0.541" fill="#8d84ea" d="M 214.5,362.5 C 214.741,365.034 213.741,366.7 211.5,367.5C 212.263,365.632 213.263,363.965 214.5,362.5 Z"/></g>
<g><path style="opacity:0.376" fill="#7d7d86" d="M 556.5,362.5 C 555.92,364.749 554.587,366.415 552.5,367.5C 553.08,365.251 554.413,363.585 556.5,362.5 Z"/></g>
<g><path style="opacity:0.031" fill="#828192" d="M 704.5,363.5 C 706.448,365.32 707.448,367.654 707.5,370.5C 705.707,368.574 704.707,366.241 704.5,363.5 Z"/></g>
<g><path style="opacity:0.549" fill="#67676e" d="M 838.5,363.5 C 841.317,366.426 844.151,369.426 847,372.5C 847.765,374.066 847.598,375.399 846.5,376.5C 846.649,375.448 846.483,374.448 846,373.5C 842.752,370.643 840.252,367.31 838.5,363.5 Z"/></g>
<g><path style="opacity:0.435" fill="#65656c" d="M 416.5,364.5 C 415.5,367.5 413.5,369.5 410.5,370.5C 412.167,368.167 414.167,366.167 416.5,364.5 Z"/></g>
<g><path style="opacity:0.435" fill="#6d6c74" d="M 574.5,365.5 C 573.699,367.999 572.366,369.999 570.5,371.5C 570.937,368.775 572.27,366.775 574.5,365.5 Z"/></g>
<g><path style="opacity:0.239" fill="#717174" d="M 648.5,365.5 C 645.042,366.957 641.376,367.957 637.5,368.5C 638.152,367.275 639.319,366.608 641,366.5C 643.498,366.083 645.998,365.749 648.5,365.5 Z"/></g>
<g><path style="opacity:0.518" fill="#7463ed" d="M 232.5,364.5 C 231.696,367.442 230.362,370.109 228.5,372.5C 228.54,369.119 229.873,366.452 232.5,364.5 Z"/></g>
<g><path style="opacity:0.243" fill="#9c97df" d="M 211.5,367.5 C 211.573,369.027 210.906,370.027 209.5,370.5C 209.427,368.973 210.094,367.973 211.5,367.5 Z"/></g>
<g><path style="opacity:0.157" fill="#767581" d="M 436.5,360.5 C 435.828,363.71 434.828,366.876 433.5,370C 433.164,371.03 432.497,371.53 431.5,371.5C 432.609,367.473 434.276,363.807 436.5,360.5 Z"/></g>
<g><path style="opacity:0.239" fill="#6f6e77" d="M 621.5,364.5 C 620.657,370.62 618.324,375.954 614.5,380.5C 614.97,377.255 616.303,374.421 618.5,372C 618.167,371.667 617.833,371.333 617.5,371C 618.568,368.562 619.902,366.395 621.5,364.5 Z"/></g>
<g><path style="opacity:0.078" fill="#8a81d4" d="M 96.5,366.5 C 98.873,368.579 100.206,371.246 100.5,374.5C 98.5659,372.24 96.8992,369.74 95.5,367C 95.7284,366.601 96.0618,366.435 96.5,366.5 Z"/></g>
<g><path style="opacity:0.549" fill="#6a6974" d="M 410.5,370.5 C 409.493,372.522 407.826,373.855 405.5,374.5C 406.507,372.478 408.174,371.145 410.5,370.5 Z"/></g>
<g><path style="opacity:0.031" fill="#9d99da" d="M 118.5,372.5 C 119.833,372.5 120.5,373.167 120.5,374.5C 119.5,374.167 118.833,373.5 118.5,372.5 Z"/></g>
<g><path style="opacity:0.031" fill="#9593ac" d="M 345.5,371.5 C 346.401,372.29 347.068,373.29 347.5,374.5C 345.952,374.179 345.285,373.179 345.5,371.5 Z"/></g>
<g><path style="opacity:0.541" fill="#7a70f9" d="M 179.5,367.5 C 179.763,371.6 179.43,375.6 178.5,379.5C 177.842,378.207 177.508,376.707 177.5,375C 177.408,372.179 178.074,369.679 179.5,367.5 Z"/></g>
<g><path style="opacity:0.243" fill="#918bf0" d="M 208.5,371.5 C 208.573,373.027 207.906,374.027 206.5,374.5C 206.427,372.973 207.094,371.973 208.5,371.5 Z"/></g>
<g><path style="opacity:0.078" fill="#867eb8" d="M 162.5,370.5 C 162.425,373.206 162.092,375.873 161.5,378.5C 161.167,378.5 160.833,378.5 160.5,378.5C 160.294,375.505 160.96,372.838 162.5,370.5 Z"/></g>
<g><path style="opacity:0.549" fill="#6e6b87" d="M 548.5,370.5 C 545.453,372.624 542.12,374.457 538.5,376C 527.026,377.603 515.693,377.77 504.5,376.5C 514.867,376.681 525.2,376.181 535.5,375C 539.736,373.233 544.069,371.733 548.5,370.5 Z"/></g>
<g><path style="opacity:0.078" fill="#7b7a87" d="M 687.5,366.5 C 689.081,368.674 690.581,371.007 692,373.5C 694.452,379.403 696.619,385.403 698.5,391.5C 696.495,390.746 695.828,389.579 696.5,388C 693.118,380.942 690.118,373.775 687.5,366.5 Z"/></g>
<g><path style="opacity:0.137" fill="#897ee5" d="M 101.5,376.5 C 103.144,376.81 104.144,377.81 104.5,379.5C 102.5,379.5 101.5,378.5 101.5,376.5 Z"/></g>
<g><path style="opacity:0.078" fill="#72717d" d="M 348.5,376.5 C 351.167,377.167 352.833,378.833 353.5,381.5C 351.132,379.806 349.465,378.14 348.5,376.5 Z"/></g>
<g><path style="opacity:0.078" fill="#797887" d="M 569.5,372.5 C 568.271,375.974 565.938,378.307 562.5,379.5C 564.5,376.833 566.833,374.5 569.5,372.5 Z"/></g>
<g><path style="opacity:0.376" fill="#86858e" d="M 709.5,374.5 C 710.677,376.679 711.677,379.013 712.5,381.5C 710.179,379.91 709.179,377.577 709.5,374.5 Z"/></g>
<g><path style="opacity:0.725" fill="#5c5c61" d="M 357.5,356.5 C 360.266,364.442 365.433,370.442 373,374.5C 377.915,375.784 382.748,377.118 387.5,378.5C 392.663,377.857 397.996,376.857 403.5,375.5C 400.977,376.851 398.311,378.017 395.5,379C 387.47,380.216 379.803,379.216 372.5,376C 364.208,371.893 359.208,365.393 357.5,356.5 Z"/></g>
<g><path style="opacity:0.643" fill="#5d5c63" d="M 820.5,374.5 C 820.38,375.586 819.713,376.253 818.5,376.5C 811.338,379.189 804.005,379.855 796.5,378.5C 794.116,377.989 792.116,376.989 790.5,375.5C 794.992,376.042 799.326,377.042 803.5,378.5C 809.226,377.27 814.893,375.937 820.5,374.5 Z"/></g>
<g><path style="opacity:0.031" fill="#a09fc0" d="M 765.5,380.5 C 764.833,381.167 764.833,381.167 765.5,380.5 Z"/></g>
<g><path style="opacity:0.243" fill="#9994e3" d="M 104.5,379.5 C 106.104,380.287 106.771,381.62 106.5,383.5C 104.896,382.713 104.229,381.38 104.5,379.5 Z"/></g>
<g><path style="opacity:0.306" fill="#7166f9" d="M 160.5,378.5 C 160.833,378.5 161.167,378.5 161.5,378.5C 161.279,381.067 160.612,383.401 159.5,385.5C 159.448,383.097 159.781,380.764 160.5,378.5 Z"/></g>
<g><path style="opacity:0.031" fill="#9390ba" d="M 178.5,381.5 C 178.573,383.027 177.906,384.027 176.5,384.5C 176.5,383.833 176.5,383.167 176.5,382.5C 177.167,382.167 177.833,381.833 178.5,381.5 Z"/></g>
<g><path style="opacity:0.031" fill="#8b8a9f" d="M 353.5,381.5 C 355.027,381.427 356.027,382.094 356.5,383.5C 354.821,383.715 353.821,383.048 353.5,381.5 Z"/></g>
<g><path style="opacity:0.314" fill="#5d5d61" d="M 561.5,380.5 C 554.944,386.254 547.278,389.92 538.5,391.5C 546.259,388.446 553.926,384.779 561.5,380.5 Z"/></g>
<g><path style="opacity:0.137" fill="#8375ea" d="M 130.5,383.5 C 132.38,383.229 133.713,383.896 134.5,385.5C 132.847,385.34 131.514,384.674 130.5,383.5 Z"/></g>
<g><path style="opacity:0.137" fill="#7e72e3" d="M 222.5,382.5 C 221.833,383.833 220.833,384.833 219.5,385.5C 219.5,383.5 220.5,382.5 222.5,382.5 Z"/></g>
<g><path style="opacity:0.541" fill="#7f76f8" d="M 197.5,382.5 C 196.7,384.741 195.034,385.741 192.5,385.5C 193.965,384.263 195.632,383.263 197.5,382.5 Z"/></g>
<g><path style="opacity:0.412" fill="#7a6ed5" d="M 108.5,385.5 C 110.027,385.427 111.027,386.094 111.5,387.5C 109.973,387.573 108.973,386.906 108.5,385.5 Z"/></g>
<g><path style="opacity:0.078" fill="#696971" d="M 422.5,382.5 C 420.853,384.326 418.853,385.66 416.5,386.5C 417.708,383.956 419.708,382.622 422.5,382.5 Z"/></g>
<g><path style="opacity:0.078" fill="#67666f" d="M 839.5,382.5 C 836.16,385.841 832.16,388.174 827.5,389.5C 827.369,388.624 827.702,387.957 828.5,387.5C 832.338,386.079 836.005,384.412 839.5,382.5 Z"/></g>
<g><path style="opacity:0.137" fill="#7d70ec" d="M 20.5,384.5 C 21.8094,388.465 23.1428,392.465 24.5,396.5C 21.402,393.207 20.0687,389.207 20.5,384.5 Z"/></g>
<g><path style="opacity:0.137" fill="#776ef4" d="M 137.5,387.5 C 139.38,387.229 140.713,387.896 141.5,389.5C 139.847,389.34 138.514,388.674 137.5,387.5 Z"/></g>
<g><path style="opacity:0.243" fill="#908cc5" d="M 187.5,387.5 C 187.179,389.048 186.179,389.715 184.5,389.5C 185.29,388.599 186.29,387.932 187.5,387.5 Z"/></g>
<g><path style="opacity:0.157" fill="#76757b" d="M 630.5,385.5 C 630.313,387.564 629.813,389.564 629,391.5C 628.329,392.252 627.496,392.586 626.5,392.5C 627.839,390.127 629.172,387.793 630.5,385.5 Z"/></g>
<g><path style="opacity:0.412" fill="#877ce9" d="M 37.5,384.5 C 39.2413,386.395 40.2413,388.728 40.5,391.5C 38.1663,389.824 37.1663,387.491 37.5,384.5 Z"/></g>
<g><path style="opacity:0.239" fill="#68676f" d="M 614.5,380.5 C 614.611,381.117 614.944,381.617 615.5,382C 613.288,385.134 611.954,388.634 611.5,392.5C 610.876,392.083 610.543,391.416 610.5,390.5C 611.504,386.899 612.837,383.566 614.5,380.5 Z"/></g>
<g><path style="opacity:0.549" fill="#62616b" d="M 537.5,391.5 C 535.048,391.387 532.382,391.72 529.5,392.5C 530.334,391.252 531.667,390.585 533.5,390.5C 535.045,390.511 536.378,390.844 537.5,391.5 Z"/></g>
<g><path style="opacity:0.412" fill="#7469f3" d="M 176.5,382.5 C 176.5,383.167 176.5,383.833 176.5,384.5C 175.943,386.949 175.943,389.282 176.5,391.5C 178.409,390.652 180.409,390.318 182.5,390.5C 180.572,392.113 178.238,393.113 175.5,393.5C 174.914,393.291 174.414,392.957 174,392.5C 174.52,389.061 175.353,385.728 176.5,382.5 Z"/></g>
<g><path style="opacity:0.239" fill="#545455" d="M 416.5,386.5 C 412.222,390.043 407.222,392.043 401.5,392.5C 401.611,391.883 401.944,391.383 402.5,391C 407.445,390.103 412.111,388.603 416.5,386.5 Z"/></g>
<g><path style="opacity:0.725" fill="#605f6a" d="M 712.5,383.5 C 714.383,385.763 715.716,388.43 716.5,391.5C 716.167,391.833 715.833,392.167 715.5,392.5C 710.22,393.618 704.887,393.784 699.5,393C 698.944,392.617 698.611,392.117 698.5,391.5C 703.833,391.5 709.167,391.5 714.5,391.5C 713.833,388.833 713.167,386.167 712.5,383.5 Z"/></g>
<g><path style="opacity:0.784" fill="#6757f2" d="M 158.5,388.5 C 157.852,390.086 157.352,391.753 157,393.5C 156.439,394.022 155.772,394.355 155,394.5C 152.341,393.032 149.674,392.699 147,393.5C 145.612,392.264 144.446,390.931 143.5,389.5C 147.476,390.571 151.309,391.904 155,393.5C 155.737,391.404 156.903,389.737 158.5,388.5 Z"/></g>
<g><path style="opacity:0.157" fill="#74737e" d="M 376.5,392.5 C 384.495,393.739 392.495,393.739 400.5,392.5C 396.538,393.97 392.372,394.97 388,395.5C 383.92,395.043 380.086,394.043 376.5,392.5 Z"/></g>
<g><path style="opacity:0.239" fill="#717079" d="M 791.5,392.5 C 799.49,393.653 807.49,393.653 815.5,392.5C 815.082,393.222 814.416,393.722 813.5,394C 810.5,394.167 807.5,394.333 804.5,394.5C 799.893,394.684 795.56,394.017 791.5,392.5 Z"/></g>
<g><path style="opacity:0.784" fill="#8072e8" d="M 40.5,391.5 C 41.9708,393.216 42.9708,395.216 43.5,397.5C 41.0246,396.313 40.0246,394.313 40.5,391.5 Z"/></g>
<g><path style="opacity:0.243" fill="#938df0" d="M 116.5,393.5 C 118.179,393.285 119.179,393.952 119.5,395.5C 118.29,395.068 117.29,394.401 116.5,393.5 Z"/></g>
<g><path style="opacity:0.635" fill="#8477ee" d="M 120.5,395.5 C 122.826,396.145 124.493,397.478 125.5,399.5C 123.628,398.489 121.628,397.655 119.5,397C 120.056,396.617 120.389,396.117 120.5,395.5 Z"/></g>
<g><path style="opacity:0.243" fill="#918bd9" d="M 43.5,397.5 C 44.4013,398.29 45.0679,399.29 45.5,400.5C 43.9519,400.179 43.2852,399.179 43.5,397.5 Z"/></g>
<g><path style="opacity:0.137" fill="#796ef2" d="M 207.5,396.5 C 205.819,398.008 203.819,399.008 201.5,399.5C 202.911,397.461 204.911,396.461 207.5,396.5 Z"/></g>
<g><path style="opacity:0.031" fill="#9f9ccb" d="M 126.5,400.5 C 128.179,400.285 129.179,400.952 129.5,402.5C 128.29,402.068 127.29,401.401 126.5,400.5 Z"/></g>
<g><path style="opacity:0.949" fill="#6e5cf3" d="M 25.5,400.5 C 26.7348,400.721 27.7348,401.388 28.5,402.5C 29.5103,405.183 30.5103,407.849 31.5,410.5C 29.0116,407.534 27.0116,404.201 25.5,400.5 Z"/></g>
<g><path style="opacity:0.031" fill="#9e9ad5" d="M 132.5,402.5 C 132.5,402.833 132.5,403.167 132.5,403.5C 131.209,403.737 130.209,403.404 129.5,402.5C 130.5,401.167 131.5,401.167 132.5,402.5 Z"/></g>
<g><path style="opacity:0.784" fill="#7a68f3" d="M 45.5,400.5 C 47.4288,402.06 48.7622,404.06 49.5,406.5C 46.6874,405.554 45.354,403.554 45.5,400.5 Z"/></g>
<g><path style="opacity:0.137" fill="#8579ec" d="M 194.5,403.5 C 193.7,405.741 192.034,406.741 189.5,406.5C 190.965,405.263 192.632,404.263 194.5,403.5 Z"/></g>
<g><path style="opacity:0.137" fill="#6d62f6" d="M 132.5,403.5 C 132.5,403.167 132.5,402.833 132.5,402.5C 136.089,403.816 139.756,404.983 143.5,406C 144.056,406.383 144.389,406.883 144.5,407.5C 140.092,407.073 136.092,405.739 132.5,403.5 Z"/></g>
<g><path style="opacity:0.031" fill="#9894c8" d="M 187.5,407.5 C 187.179,409.048 186.179,409.715 184.5,409.5C 185.29,408.599 186.29,407.932 187.5,407.5 Z"/></g>
<g><path style="opacity:0.137" fill="#847aee" d="M 49.5,406.5 C 50.4959,406.414 51.3292,406.748 52,407.5C 53.639,409.401 55.139,411.401 56.5,413.5C 53.1886,412.189 50.8552,409.855 49.5,406.5 Z"/></g>
<g><path style="opacity:0.541" fill="#7c70ed" d="M 144.5,407.5 C 146.225,407.843 146.725,408.843 146,410.5C 143.546,413.134 140.713,415.134 137.5,416.5C 139.969,413.866 142.636,411.366 145.5,409C 144.944,408.617 144.611,408.117 144.5,407.5 Z"/></g>
<g><path style="opacity:0.031" fill="#9894c8" d="M 180.5,411.5 C 180.179,413.048 179.179,413.715 177.5,413.5C 178.29,412.599 179.29,411.932 180.5,411.5 Z"/></g>
<g><path style="opacity:0.306" fill="#7c6ff3" d="M 177.5,413.5 C 177.631,414.239 177.464,414.906 177,415.5C 176.23,414.402 175.397,414.402 174.5,415.5C 174.821,413.952 175.821,413.285 177.5,413.5 Z"/></g>
<g><path style="opacity:0.031" fill="#9d99da" d="M 57.5,414.5 C 58.8333,414.5 59.5,415.167 59.5,416.5C 58.5,416.167 57.8333,415.5 57.5,414.5 Z"/></g>
<g><path style="opacity:0.137" fill="#8578ec" d="M 174.5,415.5 C 173.713,417.104 172.38,417.771 170.5,417.5C 171.514,416.326 172.847,415.66 174.5,415.5 Z"/></g>
<g><path style="opacity:0.635" fill="#796bf4" d="M 59.5,416.5 C 62.3311,417.079 64.6644,418.412 66.5,420.5C 63.3855,420.445 61.0522,419.112 59.5,416.5 Z"/></g>
<g><path style="opacity:0.412" fill="#6c65fe" d="M 137.5,416.5 C 136.267,418.796 134.267,420.13 131.5,420.5C 133.118,418.684 135.118,417.351 137.5,416.5 Z"/></g>
<g><path style="opacity:0.137" fill="#766ae6" d="M 35.5,416.5 C 39.8333,418.833 43.1667,422.167 45.5,426.5C 41.8333,423.5 38.5,420.167 35.5,416.5 Z"/></g>
<g><path style="opacity:0.412" fill="#8076f5" d="M 131.5,420.5 C 129.388,422.771 126.721,424.104 123.5,424.5C 125.789,422.613 128.455,421.279 131.5,420.5 Z"/></g>
<g><path style="opacity:0.137" fill="#7669f1" d="M 66.5,420.5 C 69.2459,421.397 71.5792,422.731 73.5,424.5C 73.5654,424.938 73.3988,425.272 73,425.5C 71.4478,424.034 69.6145,423.034 67.5,422.5C 66.7025,422.043 66.3691,421.376 66.5,420.5 Z"/></g>
<g><path style="opacity:0.412" fill="#877de7" d="M 74.5,424.5 C 78.7354,425.467 82.7354,426.8 86.5,428.5C 83.8344,428.067 81.1677,427.567 78.5,427C 76.6803,426.8 75.347,425.966 74.5,424.5 Z"/></g>
<g><path style="opacity:0.635" fill="#776cf5" d="M 123.5,424.5 C 122.653,425.966 121.32,426.8 119.5,427C 116.729,427.942 114.062,428.108 111.5,427.5C 115.385,426.51 119.385,425.51 123.5,424.5 Z"/></g>
<g><path style="opacity:0.949" fill="#6955f6" d="M 160.5,423.5 C 156.681,426.591 152.348,428.925 147.5,430.5C 150.955,426.85 155.288,424.517 160.5,423.5 Z"/></g>
<g><path style="opacity:0.243" fill="#887dd8" d="M 45.5,426.5 C 47.7946,427.136 49.4613,428.469 50.5,430.5C 48.246,429.876 46.5794,428.543 45.5,426.5 Z"/></g>
<g><path style="opacity:0.541" fill="#7c71ef" d="M 89.5,428.5 C 95.8728,429.709 102.539,429.709 109.5,428.5C 106.135,430.039 102.469,430.706 98.5,430.5C 95.8333,430.333 93.1667,430.167 90.5,430C 89.944,429.617 89.6107,429.117 89.5,428.5 Z"/></g>
<g><path style="opacity:0.031" fill="#9894c8" d="M 147.5,430.5 C 147.179,432.048 146.179,432.715 144.5,432.5C 145.29,431.599 146.29,430.932 147.5,430.5 Z"/></g>
<g><path style="opacity:0.031" fill="#9893d3" d="M 57.5,434.5 C 59.3684,435.263 61.0351,436.263 62.5,437.5C 61.8826,437.611 61.3826,437.944 61,438.5C 59.3732,437.468 58.2066,436.134 57.5,434.5 Z"/></g>
<g><path style="opacity:0.412" fill="#7568ee" d="M 140.5,435.5 C 137.572,436.817 134.572,438.15 131.5,439.5C 133.64,436.659 136.64,435.326 140.5,435.5 Z"/></g>
<g><path style="opacity:0.031" fill="#9894cd" d="M 65.5,438.5 C 66.7095,438.932 67.7095,439.599 68.5,440.5C 66.8212,440.715 65.8212,440.048 65.5,438.5 Z"/></g>
<g><path style="opacity:0.306" fill="#8276ee" d="M 75.5,442.5 C 82.0074,443.595 88.3407,444.928 94.5,446.5C 90.988,445.49 87.8214,445.49 85,446.5C 81.6468,445.384 78.4801,444.051 75.5,442.5 Z"/></g>
<g><path style="opacity:0.306" fill="#7c71f0" d="M 122.5,442.5 C 119.098,444.64 115.598,445.973 112,446.5C 108.651,446.254 105.151,446.254 101.5,446.5C 108.278,444.645 115.278,443.312 122.5,442.5 Z"/></g>
</svg>
